<svg width="546" height="294" viewBox="0 0 546 294" fill="none" xmlns="http://www.w3.org/2000/svg">
<path d="M96.2967 188.577C124.58 140.818 178.382 34 179.448 34C179.448 34 232.217 41.4623 279.656 43.5944C322.298 45.1935 354.813 44.6605 364.407 46.2595C374.001 47.8586 392.208 99.3558 423.04 152.864C454.69 207.794 489.134 262.134 489.667 264.266C490.2 266.398 373.26 271.644 294.581 273.86C293.939 273.989 274.977 272.563 253.005 272.261L185.844 271.919C164.685 271.859 142.689 271.756 121.882 271.41C79.5483 270.707 45.9112 270.129 45.1265 270.129C42.9945 270.129 68.1264 236.145 96.2967 188.577Z" fill="#267C4B"/>
<path d="M294.581 273.86C295.934 273.59 262.047 211.925 232.217 150.732C203.275 91.3599 180.514 34 179.448 34M294.581 273.86C293.939 273.989 274.977 272.563 253.005 272.261M294.581 273.86C373.26 271.644 490.2 266.398 489.667 264.266C489.134 262.134 454.69 207.793 423.04 152.864C392.208 99.3558 374.001 47.8586 364.407 46.2595C354.813 44.6605 322.298 45.1935 279.656 43.5944C232.217 41.4623 179.448 34 179.448 34M179.448 34C178.382 34 124.58 140.818 96.2967 188.577C68.1264 236.145 42.9945 270.129 45.1265 270.129C45.9112 270.129 79.5483 270.707 121.882 271.41M121.882 271.41C135.564 249.41 150.037 223.319 159.193 197.105C173.514 156.107 179.448 118.218 181.58 118.218M121.882 271.41C142.689 271.756 164.685 271.859 185.844 271.919M181.58 118.218C183.712 118.218 195.031 155.093 214.628 197.105C226.656 222.893 238.824 249.465 253.005 272.261M181.58 118.218L185.844 271.919M253.005 272.261C233.856 271.998 210.414 271.988 185.844 271.919M253.005 272.261L185.844 271.919" stroke="white" stroke-width="3"/>
<path d="M294.629 272.85C295.982 272.579 262.096 210.914 232.266 149.721C203.324 90.3493 180.563 32.9894 179.497 32.9894M294.629 272.85C293.987 272.978 275.025 271.553 253.054 271.251M294.629 272.85C373.308 270.634 490.249 265.387 489.716 263.255C489.183 261.123 454.739 206.783 423.088 151.853C392.256 98.3452 374.05 46.848 364.455 45.2489C354.861 43.6498 322.347 44.1829 279.705 42.5838C232.266 40.4517 179.497 32.9894 179.497 32.9894M179.497 32.9894C178.431 32.9894 124.628 139.807 96.345 187.566C68.1747 235.135 43.0428 269.118 45.1749 269.118C45.9596 269.118 79.5966 269.696 121.93 270.4M121.93 270.4C135.613 248.4 150.085 222.308 159.242 196.094C173.562 155.097 179.497 117.207 181.629 117.207M121.93 270.4C142.738 270.745 164.733 270.848 185.893 270.908M181.629 117.207C183.761 117.207 195.08 154.082 214.676 196.094C226.705 221.882 238.872 248.454 253.054 271.251M181.629 117.207L185.893 270.908M253.054 271.251C233.905 270.987 210.462 270.977 185.893 270.908M253.054 271.251L185.893 270.908" stroke="white" stroke-width="3"/>
<path d="M161.907 4.20608C154.445 6.91965 174.167 31.9232 174.167 31.9232H184.294C184.294 31.9232 200.818 5.27216 193.888 3.14008C186.959 1.008 180.03 23.9279 177.898 23.3949C175.766 22.8619 169.369 1.49251 161.907 4.20608Z" fill="#267C4B" stroke="white" stroke-width="5"/>
<path d="M347.959 15.4893C340.761 18.0897 360.191 44.1828 360.191 44.1828L366.054 44.7158C366.054 44.7158 385.493 16.5109 378.809 14.4677C372.124 12.4246 365.44 34.3888 363.384 33.878C361.327 33.3672 355.157 12.8889 347.959 15.4893Z" fill="#267C4B" stroke="white" stroke-width="4"/>
<path d="M17.9907 273.382C15.3256 273.916 5.73114 252.595 3.59906 245.665C1.46698 238.736 1.46698 235.005 3.59906 233.939C5.73115 232.873 9.99534 233.406 12.1274 239.802C14.2595 246.198 20.6558 272.849 17.9907 273.382Z" fill="#267C4B" stroke="white" stroke-width="3"/>
<path d="M367.036 291.745C364.5 292.468 353.56 272.594 350.958 266.059C348.357 259.523 348.066 255.914 350.045 254.717C352.024 253.52 356.19 253.703 358.75 259.724C361.31 265.744 369.572 291.022 367.036 291.745Z" fill="#267C4B" stroke="white" stroke-width="3"/>
<path d="M520.145 272.33C517.847 271.037 524.271 249.279 527.084 242.832C529.898 236.385 532.257 233.639 534.5 234.203C536.744 234.767 539.544 237.856 537.068 243.911C534.592 249.966 522.443 273.623 520.145 272.33Z" fill="#267C4B" stroke="white" stroke-width="3"/>
<path d="M5.19824 248.33C89.5906 175.549 125.529 125.296 174.699 32.4563" stroke="white" stroke-width="3"/>
<path d="M360.191 263.788C269.676 185.69 237.565 132.611 184.827 32.9894" stroke="white" stroke-width="3"/>
<path d="M535.022 247.264C450.312 171.77 423.693 145.875 363.922 44.1828" stroke="white" stroke-width="3"/>
</svg>
