<svg width="1920" height="1080" viewBox="0 0 1920 1080" fill="none" xmlns="http://www.w3.org/2000/svg">
<path d="M1921 0H1V1080H1921V0Z" fill="#12703E"/>
<path d="M1921 0H1V611H1921V0Z" fill="url(#paint0_linear_9_37)"/>
<path d="M989.619 127.038L996.544 144.524L1066.51 221.193L1096.95 193.619L1171.97 221.193L1180.04 237.333L1233.13 262.217L1228.74 283.066L1272.37 272.978L1291.99 319.383L1318.53 320.728L1335.85 355.7L1208.9 377.221L644.547 389.999L603 319.383L608.77 256.837L626.082 240.024L636.469 221.193L664.167 217.83V169.407L699.907 183.531L713.792 131.745L763.418 59.112L776.113 74.5803L838.434 8.67188L884.597 72.5627L929.607 102.154L953.843 80.6331L989.619 127.038Z" fill="url(#paint1_linear_9_37)"/>
<path d="M1494.72 489H1486.8V417.555V414.635H1485.21C1485.01 414.635 1482.04 417.555 1480.06 419.306C1478.07 421.059 1473.12 422.227 1472.72 421.838C1472.32 421.448 1477.48 413.466 1477.08 413.272C1476.69 413.077 1464 423.979 1463.6 423.784C1463.21 423.59 1468.76 418.333 1468.36 418.139C1467.96 417.944 1459.05 422.811 1458.45 422.617C1457.86 422.422 1459.44 419.501 1459.05 419.306C1458.65 419.112 1454.09 421.059 1453.69 420.864C1453.3 420.669 1455.88 417.944 1455.67 417.555C1455.48 417.165 1448.54 417.36 1448.15 416.192C1447.75 415.024 1459.84 413.661 1460.63 413.466C1461.43 413.272 1468.56 409.767 1469.16 409.378C1469.75 408.989 1478.67 404.316 1479.26 403.732C1479.86 403.148 1483.83 397.892 1483.43 397.502C1483.03 397.113 1469.16 406.263 1468.36 406.263C1467.57 406.263 1449.53 409.378 1448.15 409.378C1446.76 409.378 1445.92 406.768 1445 405.466C1445 405.466 1458.85 402.136 1460.63 400.544C1462.42 398.952 1462.61 398.865 1462.22 398.67C1461.82 398.476 1457.86 398.476 1457.06 398.67C1456.27 398.865 1453.3 400.034 1452.9 399.839C1452.51 399.644 1454.88 397.307 1455.28 396.918C1455.67 396.529 1459.05 395.75 1459.64 395.75C1460.24 395.75 1467.57 397.113 1468.36 396.918C1469.16 396.723 1473.32 394.777 1475.5 393.804C1477.68 392.83 1481.25 390.299 1481.64 389.91C1482.04 389.52 1485.61 384.848 1486 384.069C1486.4 383.29 1487.19 379.981 1486.6 379.786C1486 379.592 1480.45 389.715 1480.25 389.715C1480.06 389.715 1480.25 387.379 1480.06 387.184C1479.86 386.99 1478.07 387.768 1477.68 387.963C1477.28 388.158 1471.54 393.998 1471.33 394.193C1471.14 394.388 1469.75 394.193 1469.16 394.193C1468.56 394.193 1468.76 393.609 1469.35 392.83C1469.95 392.051 1472.53 388.352 1472.13 388.158C1471.73 387.963 1464 393.414 1463.6 393.414C1463.21 393.414 1462.42 393.22 1462.22 392.83C1462.02 392.441 1466.97 388.158 1466.58 387.963C1466.18 387.768 1457.86 391.857 1457.46 391.467C1457.06 391.078 1458.05 390.494 1457.86 390.104C1457.66 389.715 1453.5 389.52 1453.5 389.326C1453.5 389.131 1457.06 386.795 1457.06 386.6C1457.06 386.406 1455.88 385.755 1454.68 385.043C1453.5 384.331 1458.25 385.043 1458.45 385.043C1458.65 385.043 1467.37 380.37 1468.17 379.981C1468.96 379.592 1474.51 377.061 1477.48 374.53C1480.45 371.999 1484.61 368.105 1484.82 367.911C1485.01 367.716 1487.19 363.628 1486.8 363.628C1486.4 363.628 1478.47 372.973 1478.07 372.973C1477.68 372.973 1478.47 369.858 1478.07 369.858C1477.68 369.858 1473.71 374.335 1473.32 374.335C1472.92 374.335 1474.11 370.831 1473.91 370.831C1473.71 370.831 1468.76 374.53 1468.17 374.919C1467.57 375.308 1466.78 375.114 1466.38 374.919C1465.98 374.724 1469.35 371.805 1468.96 371.61C1468.56 371.415 1465.59 373.167 1465.19 372.973C1464.8 372.778 1466.97 371.026 1466.58 370.831C1466.18 370.637 1465.19 371.805 1464.4 372.194C1463.6 372.583 1459.38 374.465 1456.87 375.503C1454.36 376.542 1456.27 373.751 1456.87 373.362C1457.46 372.973 1461.62 371.026 1461.43 370.442C1461.23 369.858 1455.08 371.415 1454.49 371.415C1453.89 371.415 1452.9 369.663 1452.9 369.079C1452.9 368.689 1457.97 367.104 1455.64 367.249C1453.3 367.395 1453.69 366.937 1454.68 366.743C1455.67 366.548 1462.61 365.964 1464 365.575C1465.39 365.185 1471.93 362.654 1473.52 361.681C1475.1 360.707 1480.06 357.204 1479.46 356.814C1478.87 356.425 1471.73 361.097 1471.14 361.097C1470.54 361.097 1471.54 359.734 1471.14 359.539C1470.74 359.345 1465.98 362.265 1465.59 361.876C1465.19 361.486 1467.77 358.177 1467.37 357.982C1466.97 357.787 1464.2 358.955 1463.81 359.15C1463.41 359.345 1461.23 359.734 1458.85 359.539C1456.47 359.345 1461.43 356.23 1462.22 356.035C1463.01 355.841 1466.38 354.478 1466.18 353.893C1465.98 353.309 1461.23 354.283 1459.64 354.088C1458.05 353.893 1457.46 352.725 1457.26 352.142C1457.06 351.558 1466.78 350.39 1468.36 350C1469.95 349.611 1473.91 349.027 1475.1 348.638C1476.29 348.248 1479.7 347.68 1485.21 340.655C1485.52 340.265 1487.39 336.178 1486.99 335.983C1486.6 335.788 1479.66 343.965 1479.07 343.576C1478.47 343.186 1480.45 341.434 1479.66 340.655C1478.87 339.877 1474.51 342.408 1472.53 343.381C1470.54 344.354 1469.75 345.912 1468.96 346.496C1468.17 347.08 1462.81 346.496 1460.63 346.106C1458.45 345.717 1460.43 343.965 1461.62 343.186C1462.81 342.408 1465.19 342.213 1468.36 341.24C1471.54 340.266 1476.09 338.514 1475.89 337.93C1475.69 337.346 1467.18 340.071 1466.78 339.487C1466.38 338.903 1471.14 336.956 1470.94 336.567C1470.74 336.178 1464.8 334.231 1463.81 333.842C1462.81 333.452 1464.6 332.479 1465.19 332.284C1465.79 332.089 1475.1 332.868 1476.09 332.673C1477.08 332.479 1480.25 331.31 1481.05 330.532C1481.84 329.753 1484.61 327.417 1485.21 326.639C1485.81 325.86 1487.79 322.939 1487.19 322.939C1486.6 322.939 1481.45 326.249 1480.85 326.444C1480.25 326.639 1476.69 326.444 1475.5 326.444C1474.31 326.444 1477.28 324.302 1477.28 323.718C1477.28 323.134 1474.7 321.382 1473.71 320.409C1472.72 319.435 1470.74 317.683 1471.14 316.904C1471.54 316.125 1475.5 318.267 1476.69 318.851C1477.88 319.435 1480.45 319.435 1482.04 318.851C1483.62 318.267 1486.8 314.763 1487.39 313.595C1487.98 312.427 1488.58 310.285 1487.98 310.09C1487.39 309.895 1481.84 315.152 1481.05 314.373C1480.25 313.595 1482.44 312.427 1481.84 311.843C1481.25 311.259 1477.68 311.843 1477.68 311.064C1477.68 310.285 1481.25 309.895 1482.44 309.117C1483.62 308.338 1485.81 306.781 1486.99 304.834C1488.19 302.887 1489.18 299.967 1488.78 299.772C1488.38 299.578 1486.8 300.94 1485.21 301.914C1483.62 302.887 1482.83 302.692 1482.04 302.108C1481.25 301.524 1481.05 301.135 1482.44 300.356C1483.83 299.578 1486 298.215 1486.6 297.631C1487.19 297.047 1487.98 295.294 1488.38 293.737C1488.78 292.18 1489.57 287.896 1489.77 286.923C1489.97 285.95 1490.56 283.225 1490.96 283.03C1491.35 282.835 1491.35 283.614 1491.95 284.977C1492.55 286.339 1492.94 291.012 1493.34 292.764C1493.73 294.516 1494.33 296.657 1495.32 298.02C1496.31 299.383 1499.48 301.135 1500.67 301.719C1501.86 302.303 1502.46 304.25 1500.67 303.861C1498.89 303.471 1496.31 303.276 1496.51 303.861C1496.71 304.445 1500.08 307.365 1499.09 307.365C1498.1 307.365 1494.72 305.224 1494.13 305.224C1493.54 305.224 1494.53 308.727 1494.72 309.311C1494.92 309.895 1499.88 314.763 1500.48 314.957C1501.07 315.152 1507.21 315.152 1507.81 315.347C1508.4 315.541 1511.57 320.214 1510.98 320.214C1510.38 320.214 1508 319.241 1507.41 319.241C1506.82 319.241 1504.04 319.046 1503.05 319.046C1502.06 319.046 1505.43 320.603 1505.23 321.187C1505.03 321.771 1499.48 320.409 1499.09 320.409C1498.69 320.409 1499.88 322.161 1499.48 322.355C1499.09 322.55 1494.72 319.046 1494.33 319.435C1493.93 319.825 1495.12 322.745 1495.91 323.523C1496.71 324.302 1500.08 327.612 1501.47 328.196C1502.85 328.78 1505.03 329.169 1506.42 329.364C1507.81 329.559 1508.4 329.559 1511.97 329.753C1515.54 329.948 1515.54 332.089 1510.78 331.505C1506.02 330.921 1507.21 331.31 1507.01 331.894C1506.82 332.479 1509.59 333.063 1509.59 333.452C1509.59 333.842 1505.63 333.063 1505.43 333.452C1505.23 333.842 1507.61 335.788 1507.01 335.788C1506.42 335.788 1502.85 334.036 1502.46 334.426C1502.06 334.815 1503.25 337.151 1502.85 336.956C1502.46 336.762 1499.88 334.231 1499.48 334.231C1499.09 334.231 1499.88 335.788 1499.48 335.788C1499.09 335.788 1499.09 335.594 1498.69 335.399C1498.29 335.205 1494.92 331.894 1494.72 332.284C1494.53 332.673 1494.72 333.647 1494.92 334.036C1495.12 334.426 1498.29 337.93 1499.09 338.514C1499.88 339.098 1504.04 341.045 1505.03 341.24C1506.02 341.434 1512.36 341.824 1513.16 341.824C1513.95 341.824 1517.52 339.292 1518.12 339.098C1518.71 338.903 1520.29 339.487 1519.11 340.655C1517.92 341.824 1515.74 342.797 1516.13 342.992C1516.53 343.186 1518.91 343.576 1519.9 343.77C1520.89 343.965 1520.5 345.717 1520.1 345.912C1519.7 346.106 1514.94 345.806 1514.35 345.717C1513.75 345.628 1516.73 348.053 1516.13 348.443C1515.54 348.832 1509.79 346.885 1508.8 347.274C1507.81 347.664 1511.37 350.974 1510.78 350.974C1510.19 350.974 1504.63 348.248 1504.04 348.248C1503.45 348.248 1506.02 351.752 1505.43 351.752C1504.84 351.752 1500.67 348.248 1500.27 348.248C1499.88 348.248 1500.08 349.806 1499.88 350C1499.68 350.195 1496.71 346.301 1496.51 346.885C1496.31 347.469 1496.91 348.638 1497.3 349.416C1497.7 350.195 1504.63 355.841 1505.83 356.035C1507.01 356.23 1514.94 357.204 1516.13 357.009C1517.32 356.814 1523.07 353.893 1524.06 354.283C1525.05 354.672 1520.1 359.15 1520.69 359.345C1521.28 359.539 1525.25 359.734 1525.25 360.123C1525.25 360.513 1523.27 362.655 1522.87 362.655C1522.48 362.655 1516.53 363.044 1516.33 363.239C1516.13 363.433 1519.11 365.964 1518.71 366.159C1518.31 366.353 1513.36 364.407 1513.16 364.991C1512.96 365.575 1514.55 368.3 1514.15 368.495C1513.75 368.689 1508.21 364.407 1507.61 364.796C1507.01 365.185 1508.8 368.105 1508 368.105C1507.21 368.105 1500.87 360.318 1500.27 360.513C1499.68 360.707 1502.65 365.769 1501.86 365.769C1501.07 365.769 1495.91 358.566 1495.32 359.15C1494.72 359.734 1499.09 368.105 1501.27 369.274C1503.45 370.442 1517.92 376.477 1518.51 376.671C1519.11 376.866 1527.83 378.619 1530.4 379.397C1532.98 380.176 1526.44 384.654 1525.45 384.848C1524.46 385.043 1520.89 383.68 1520.5 384.069C1520.1 384.459 1524.65 388.936 1524.26 388.936C1523.86 388.936 1521.88 388.352 1521.28 388.158C1520.69 387.963 1514.15 384.264 1513.95 384.848C1513.75 385.432 1518.91 389.715 1518.31 390.494C1517.72 391.273 1506.22 383.68 1505.63 384.069C1505.03 384.459 1507.21 387.963 1506.22 388.158C1505.23 388.352 1499.88 378.035 1499.28 378.424C1498.69 378.813 1501.27 384.069 1500.67 384.069C1500.08 384.069 1494.92 376.477 1494.33 376.866C1493.73 377.256 1501.27 388.352 1501.86 388.936C1502.46 389.52 1512.56 395.945 1514.35 396.529C1516.13 397.113 1528.82 398.086 1529.41 398.67C1530.01 399.255 1528.62 403.732 1527.63 403.732C1526.64 403.732 1523.07 403.343 1522.67 403.732C1522.28 404.121 1524.26 405.484 1524.06 405.874C1523.86 406.263 1518.31 405.289 1517.92 405.679C1517.52 406.068 1520.29 408.405 1519.9 408.794C1519.5 409.183 1513.95 406.458 1513.56 406.847C1513.16 407.237 1515.34 408.794 1515.14 409.183C1514.94 409.573 1508.6 405.484 1508.21 405.289C1507.81 405.095 1508 407.042 1507.61 407.042C1507.21 407.042 1503.64 403.732 1503.45 403.927C1503.25 404.121 1505.03 406.458 1505.23 406.653C1505.43 406.847 1520.1 416.776 1520.5 416.971C1520.89 417.165 1529.61 423.59 1529.81 423.979C1530.01 424.368 1528.02 424.758 1527.63 424.758C1527.23 424.758 1522.08 423.201 1521.49 423.395C1520.89 423.59 1524.26 426.51 1523.86 427.094C1523.47 427.678 1514.94 423.201 1514.35 423.395C1513.75 423.59 1515.54 425.926 1514.94 426.315C1514.35 426.704 1509.39 421.448 1508.8 421.448C1508.21 421.448 1508.21 423.006 1507.61 423.006C1507.01 423.006 1500.27 418.333 1499.48 417.555C1498.69 416.776 1495.32 408.989 1494.72 409.183C1494.13 409.378 1496.11 416.192 1496.71 416.971C1497.3 417.749 1504.63 424.952 1506.02 425.926C1507.41 426.899 1514.94 431.377 1514.35 432.156C1513.75 432.934 1505.83 429.43 1505.63 430.014C1505.43 430.598 1509.2 435.076 1508.8 435.271C1508.4 435.465 1499.48 428.457 1499.09 428.457C1498.69 428.457 1499.48 430.598 1499.09 430.598C1498.69 430.598 1495.12 426.51 1494.72 426.51C1494.33 426.51 1494.72 489 1494.72 489Z" fill="url(#paint2_linear_9_37)"/>
<path d="M394.216 566.5H375.686V443.783V437.972H371.979C371.516 437.972 364.567 443.783 359.935 447.27C355.302 450.757 343.72 453.083 342.793 452.308C341.867 451.532 353.912 435.647 352.985 435.26C352.059 434.873 322.41 456.57 321.484 456.182C320.557 455.795 333.528 445.334 332.602 444.946C331.675 444.558 310.829 454.245 309.439 453.857C308.049 453.47 311.754 447.658 310.829 447.27C309.902 446.883 299.247 450.757 298.32 450.37C297.394 449.983 303.416 444.558 302.952 443.783C302.489 443.009 286.275 443.396 285.348 441.072C284.422 438.747 312.681 436.035 314.534 435.647C316.388 435.26 333.065 428.286 334.455 427.511C335.845 426.736 356.692 417.437 358.082 416.275C359.472 415.112 368.737 404.652 367.811 403.876C366.884 403.102 334.455 421.312 332.602 421.312C330.749 421.312 288.592 427.511 285.348 427.511C282.105 427.511 280.154 422.317 278 419.725C278 419.725 310.366 413.099 314.534 409.93C318.704 406.761 319.167 406.589 318.241 406.201C317.314 405.814 308.049 405.814 306.196 406.201C304.342 406.589 297.394 408.914 296.467 408.526C295.54 408.138 301.1 403.489 302.026 402.714C302.952 401.94 310.829 400.389 312.218 400.389C313.608 400.389 330.749 403.102 332.602 402.714C334.455 402.327 344.183 398.453 349.28 396.515C354.375 394.578 362.714 389.541 363.641 388.766C364.567 387.991 372.906 378.692 373.833 377.143C374.759 375.594 376.613 369.007 375.223 368.62C373.833 368.232 360.862 388.379 360.399 388.379C359.935 388.379 360.399 383.73 359.935 383.342C359.472 382.955 355.302 384.504 354.375 384.892C353.449 385.279 340.015 396.902 339.551 397.291C339.088 397.678 335.845 397.291 334.455 397.291C333.065 397.291 333.528 396.128 334.918 394.578C336.308 393.028 342.33 385.666 341.404 385.279C340.478 384.892 322.41 395.74 321.484 395.74C320.557 395.74 318.704 395.353 318.241 394.578C317.778 393.804 329.359 385.279 328.433 384.892C327.506 384.504 308.049 392.641 307.122 391.866C306.196 391.091 308.512 389.929 308.049 389.153C307.586 388.379 297.857 387.991 297.857 387.604C297.857 387.217 306.196 382.568 306.196 382.179C306.196 381.792 303.416 380.497 300.637 379.081C297.857 377.663 308.976 379.081 309.439 379.081C309.902 379.081 330.286 369.782 332.138 369.007C333.992 368.232 346.963 363.195 353.912 358.158C360.862 353.121 370.59 345.372 371.053 344.985C371.516 344.597 376.613 336.461 375.686 336.461C374.759 336.461 356.229 355.059 355.302 355.059C354.375 355.059 356.229 348.859 355.302 348.859C354.375 348.859 345.11 357.771 344.183 357.771C343.257 357.771 346.037 350.797 345.573 350.797C345.11 350.797 333.528 358.158 332.138 358.933C330.749 359.708 328.896 359.32 327.969 358.933C327.043 358.546 334.918 352.734 333.991 352.346C333.065 351.959 326.116 355.446 325.19 355.059C324.263 354.671 329.359 351.184 328.433 350.797C327.506 350.41 325.19 352.734 323.336 353.509C321.484 354.284 311.601 358.029 305.732 360.095C299.865 362.162 304.342 356.608 305.732 355.833C307.122 355.059 316.851 351.184 316.388 350.022C315.924 348.859 301.564 351.959 300.174 351.959C298.784 351.959 296.467 348.472 296.467 347.31C296.467 346.535 308.315 343.381 302.855 343.669C297.395 343.957 298.32 343.048 300.637 342.661C302.952 342.272 319.167 341.11 322.41 340.336C325.653 339.561 340.941 334.524 344.647 332.587C348.353 330.649 359.935 323.675 358.545 322.9C357.155 322.126 340.478 331.425 339.088 331.425C337.698 331.425 340.015 328.713 339.088 328.325C338.161 327.938 327.043 333.749 326.116 332.974C325.19 332.2 331.213 325.613 330.286 325.225C329.359 324.838 322.873 327.162 321.946 327.551C321.021 327.938 315.924 328.713 310.366 328.325C304.806 327.938 316.388 321.738 318.241 321.351C320.094 320.964 327.969 318.251 327.506 317.089C327.043 315.926 315.924 317.864 312.218 317.477C308.512 317.089 307.122 314.764 306.659 313.602C306.196 312.439 328.896 310.115 332.602 309.341C336.308 308.565 345.573 307.403 348.353 306.628C351.132 305.854 359.094 304.723 371.979 290.742C372.695 289.966 377.076 281.831 376.149 281.444C375.223 281.057 359.009 297.329 357.619 296.554C356.229 295.78 360.862 292.293 359.009 290.742C357.155 289.193 346.963 294.229 342.33 296.167C337.698 298.104 335.845 301.203 333.991 302.366C332.138 303.528 319.631 302.366 314.534 301.591C309.439 300.816 314.071 297.329 316.851 295.78C319.631 294.229 325.19 293.842 332.602 291.905C340.015 289.968 350.67 286.481 350.207 285.319C349.743 284.156 329.823 289.58 328.896 288.418C327.969 287.255 339.088 283.381 338.625 282.606C338.161 281.831 324.263 277.957 321.946 277.182C319.631 276.408 323.8 274.47 325.19 274.083C326.579 273.695 348.353 275.245 350.67 274.857C352.985 274.47 360.399 272.145 362.251 270.596C364.104 269.045 370.59 264.396 371.979 262.847C373.369 261.296 378.003 255.485 376.613 255.485C375.223 255.485 363.177 262.072 361.787 262.459C360.399 262.847 352.059 262.459 349.28 262.459C346.5 262.459 353.449 258.198 353.449 257.035C353.449 255.873 347.427 252.386 345.11 250.448C342.793 248.511 338.161 245.024 339.088 243.475C340.015 241.924 349.28 246.186 352.059 247.349C354.839 248.511 360.862 248.511 364.567 247.349C368.274 246.186 375.686 239.212 377.076 236.888C378.466 234.563 379.856 230.301 378.466 229.914C377.076 229.527 364.104 239.988 362.251 238.437C360.399 236.888 365.494 234.563 364.104 233.401C362.714 232.238 354.375 233.401 354.375 231.851C354.375 230.301 362.714 229.527 365.494 227.976C368.274 226.427 373.369 223.327 376.149 219.453C378.929 215.578 381.245 209.766 380.319 209.379C379.392 208.992 375.686 211.704 371.979 213.641C368.274 215.578 366.421 215.191 364.567 214.028C362.714 212.866 362.251 212.091 365.494 210.541C368.737 208.992 373.833 206.279 375.223 205.117C376.613 203.955 378.466 200.468 379.392 197.368C380.319 194.269 382.171 185.745 382.635 183.808C383.098 181.871 384.488 176.446 385.414 176.059C386.341 175.671 386.341 177.221 387.731 179.933C389.121 182.646 390.048 191.944 390.973 195.431C391.9 198.918 393.29 203.181 395.606 205.892C397.923 208.604 405.335 212.091 408.115 213.253C410.894 214.416 412.284 218.291 408.115 217.515C403.945 216.74 397.923 216.353 398.386 217.515C398.85 218.678 406.725 224.489 404.408 224.489C402.092 224.489 394.216 220.227 392.827 220.227C391.437 220.227 393.753 227.202 394.216 228.364C394.68 229.527 406.262 239.212 407.652 239.599C409.042 239.988 423.402 239.988 424.792 240.375C426.182 240.762 433.594 250.061 432.204 250.061C430.814 250.061 425.256 248.124 423.866 248.124C422.476 248.124 415.99 247.737 413.674 247.737C411.357 247.737 419.234 250.835 418.77 251.998C418.307 253.16 405.335 250.448 404.408 250.448C403.482 250.448 406.262 253.935 405.335 254.322C404.408 254.711 394.216 247.737 393.29 248.511C392.363 249.286 395.143 255.098 396.996 256.647C398.85 258.198 406.725 264.784 409.968 265.947C413.21 267.109 418.307 267.883 421.549 268.271C424.792 268.658 426.182 268.658 434.521 269.045C442.86 269.434 442.86 273.695 431.741 272.532C420.622 271.37 423.402 272.145 422.939 273.308C422.476 274.47 428.962 275.632 428.962 276.408C428.962 277.182 419.697 275.632 419.234 276.408C418.77 277.182 424.329 281.057 422.939 281.057C421.549 281.057 413.21 277.57 412.284 278.344C411.357 279.119 414.137 283.768 413.21 283.381C412.284 282.993 406.262 277.957 405.335 277.957C404.408 277.957 406.262 281.057 405.335 281.057C404.408 281.057 404.408 280.669 403.482 280.282C402.555 279.894 394.68 273.308 394.216 274.083C393.753 274.857 394.216 276.795 394.68 277.57C395.143 278.344 402.555 285.319 404.408 286.481C406.262 287.644 415.99 291.518 418.307 291.905C420.622 292.293 435.448 293.067 437.301 293.067C439.154 293.067 447.493 288.031 448.883 287.644C450.272 287.255 453.978 288.418 451.198 290.742C448.419 293.067 443.323 295.005 444.249 295.392C445.176 295.78 450.735 296.554 453.051 296.942C455.368 297.329 454.441 300.816 453.515 301.203C452.588 301.591 441.47 300.993 440.08 300.816C438.691 300.64 445.639 305.465 444.249 306.241C442.86 307.016 429.425 303.141 427.109 303.916C424.792 304.69 433.131 311.277 431.741 311.277C430.351 311.277 417.38 305.854 415.99 305.854C414.6 305.854 420.622 312.827 419.234 312.827C417.844 312.827 408.115 305.854 407.188 305.854C406.262 305.854 406.725 308.952 406.262 309.341C405.798 309.728 398.85 301.979 398.386 303.141C397.923 304.303 399.313 306.628 400.24 308.178C401.165 309.728 417.38 320.964 420.159 321.351C422.939 321.738 441.47 323.675 444.249 323.288C447.029 322.9 460.464 317.089 462.78 317.864C465.097 318.639 453.515 327.551 454.905 327.938C456.295 328.325 465.56 328.713 465.56 329.487C465.56 330.262 460.927 334.524 460 334.524C459.075 334.524 445.176 335.299 444.713 335.687C444.25 336.074 451.198 341.11 450.272 341.498C449.346 341.885 437.764 338.011 437.301 339.174C436.838 340.336 440.543 345.759 439.617 346.148C438.691 346.535 425.719 338.011 424.329 338.785C422.939 339.561 427.109 345.372 425.256 345.372C423.402 345.372 408.578 329.875 407.188 330.262C405.798 330.649 412.747 340.723 410.894 340.723C409.042 340.723 396.996 326.388 395.606 327.551C394.216 328.713 404.408 345.372 409.505 347.697C414.6 350.022 448.419 362.033 449.808 362.42C451.198 362.807 471.582 366.294 477.605 367.845C483.627 369.394 468.34 378.305 466.023 378.692C463.707 379.081 455.368 376.368 454.441 377.143C453.515 377.918 464.17 386.829 463.243 386.829C462.317 386.829 457.685 385.666 456.295 385.279C454.905 384.892 439.617 377.53 439.154 378.692C438.691 379.855 450.735 388.379 449.346 389.929C447.956 391.479 421.086 376.368 419.697 377.143C418.307 377.918 423.402 384.892 421.086 385.279C418.77 385.666 406.262 365.132 404.872 365.907C403.482 366.682 409.505 377.143 408.115 377.143C406.725 377.143 394.68 362.033 393.29 362.807C391.9 363.582 409.505 385.666 410.894 386.829C412.284 387.991 435.911 400.778 440.08 401.94C444.249 403.102 473.899 405.039 475.289 406.201C476.679 407.363 473.435 416.275 471.119 416.275C468.803 416.275 460.463 415.501 459.537 416.275C458.611 417.05 463.243 419.762 462.78 420.537C462.317 421.312 449.346 419.375 448.419 420.15C447.493 420.924 453.978 425.573 453.051 426.348C452.125 427.124 439.154 421.699 438.227 422.474C437.301 423.249 442.396 426.348 441.933 427.124C441.47 427.898 426.646 419.762 425.719 419.375C424.792 418.988 425.256 422.862 424.329 422.862C423.402 422.862 415.064 416.275 414.6 416.663C414.137 417.05 418.307 421.699 418.77 422.086C419.234 422.474 453.515 442.234 454.441 442.621C455.368 443.009 475.752 455.795 476.215 456.57C476.679 457.344 472.045 458.119 471.119 458.119C470.192 458.119 458.148 455.019 456.758 455.408C455.368 455.795 463.243 461.606 462.317 462.768C461.39 463.931 441.47 455.019 440.08 455.408C438.691 455.795 442.86 460.444 441.47 461.219C440.08 461.993 428.499 451.532 427.109 451.532C425.719 451.532 425.719 454.632 424.329 454.632C422.939 454.632 407.188 445.334 405.335 443.783C403.482 442.234 395.606 426.736 394.216 427.124C392.827 427.511 397.46 441.072 398.85 442.621C400.24 444.171 417.38 458.506 420.622 460.444C423.866 462.381 441.47 471.292 440.08 472.842C438.691 474.392 420.159 467.418 419.697 468.58C419.234 469.742 428.036 478.654 427.109 479.041C426.182 479.429 405.335 465.48 404.408 465.48C403.482 465.48 405.335 469.742 404.408 469.742C403.482 469.742 395.143 461.606 394.216 461.606C393.29 461.606 394.216 566.5 394.216 566.5Z" fill="url(#paint3_linear_9_37)"/>
<path d="M84.0695 27.011C88.5304 28.0516 78.5282 39.8526 80.0141 41.9263C81.5 44 86.5752 38.9455 88.0376 37.2228C89.5 35.5 93 32.2393 93 32.2393V4L13.9112 13.1363C13.9112 13.1363 -18.9375 16.9519 -16.9098 20.0736C-14.8822 23.1954 13.5056 22.1548 13.9112 23.8892C14.3167 25.6235 -10.8268 34.989 -8.79914 36.7233C-6.77142 38.4576 1.81691 37.9746 8.63905 37.7639C25.3604 37.2474 47.9764 24.236 49.5986 27.011C51.2208 29.7859 29.7272 45.0481 32.1604 46.4356C34.5936 47.8231 42.9383 46.3782 49.5986 45.0481C64.9663 41.9792 79.6085 25.9704 84.0695 27.011Z" fill="#064530" stroke="#064530"/>
<path d="M172.568 526.261C150.566 522.637 151.448 534.717 143 539.146V608L1911.47 604.376L1934 520.624H1929.78L1911.47 519.819L1903.02 521.832L1897.39 537.133C1897.39 537.133 1883.5 530.69 1879.09 530.69C1874.67 530.69 1866.31 541.562 1862.19 541.562C1858.07 541.562 1853.74 524.892 1853.74 524.248C1853.74 523.603 1843.75 517 1836.85 517C1829.94 517 1833.55 542.77 1829.81 544.783C1826.07 546.797 1818.54 537.133 1818.54 537.133C1818.54 537.133 1787.35 527.066 1780.53 526.664C1773.71 526.261 1774.89 529.483 1774.89 529.483C1774.89 529.483 1764.78 521.832 1755.18 521.832C1745.58 521.832 1745.33 540.354 1745.33 540.354C1745.33 540.354 1729.87 526.664 1724.21 524.248C1718.54 521.832 1721.39 539.549 1721.39 539.549C1721.39 539.549 1691.73 528.274 1687.6 528.274C1683.47 528.274 1683.37 541.964 1683.37 541.964C1683.37 541.964 1674 536.73 1666.48 534.717C1658.95 532.703 1652.4 545.991 1652.4 545.991C1652.4 545.991 1635.32 534.717 1628.46 535.924C1621.6 537.133 1628.46 546.797 1628.46 546.797L1618.6 541.562L1605.93 543.173L1587.63 540.354C1587.63 540.354 1567.63 534.636 1563.69 533.509C1559.75 532.382 1561.91 535.297 1558.06 536.73C1554.2 538.163 1550.98 533.509 1545.39 536.73C1539.79 539.951 1534.12 545.991 1534.12 545.991L518.941 555.252L486.557 554.044L482.333 550.42C482.333 550.42 466.927 542.043 462.62 541.159C458.313 540.276 455.017 541.159 452.764 541.159C450.511 541.159 446.193 544.917 444.316 546.797C444.316 546.797 439.53 537.536 431.644 535.924C423.757 534.314 416.156 545.991 416.156 545.991C416.156 545.991 398.166 541.159 390.811 541.159C383.456 541.159 375.323 550.42 375.323 550.42C375.323 550.42 365.398 541.964 358.427 541.964C351.456 541.964 347.163 547.602 347.163 547.602C347.163 547.602 339.075 534.717 334.491 534.717C329.906 534.717 313.37 547.602 313.37 547.602C313.37 547.602 300.935 537.536 293.658 537.536C286.381 537.536 275.354 545.991 275.354 545.991C275.354 545.991 279.447 539.146 275.354 537.536C271.261 535.924 247.193 541.964 247.193 541.964C247.193 541.964 254.736 528.677 247.193 527.469C239.651 526.261 207.769 534.717 207.769 534.717C197.443 532.033 194.57 529.885 172.568 526.261Z" fill="#1B7341"/>
<path d="M1566.59 562.584C1564.75 562.708 1543.33 560.459 1542.6 563.285C1541.87 566.112 1541.87 566.112 1548.68 571.204C1555.5 576.295 1593.41 588.544 1593.41 588.544L1662.5 549.044C1662.5 549.044 1632.99 505.318 1631.03 503.6C1629.06 501.882 1620.93 477.44 1615.72 482.422C1610.51 487.404 1608.58 513.453 1607.78 515.359C1606.99 517.264 1595.13 506.034 1593.41 508.002C1591.69 509.97 1599.59 544.61 1597.81 545.656C1596.04 546.702 1585.08 521.526 1578.93 512.687C1572.78 503.847 1556.01 488.323 1553.25 488.51C1550.49 488.697 1557.57 511.358 1561.69 517.559C1565.81 523.759 1585.95 552.94 1584.44 553.042C1581.68 553.229 1575.08 546.737 1567.98 542.125C1560.88 537.513 1550.91 535.877 1550.18 538.704C1549.45 541.531 1551.38 546.411 1555.72 552.213C1560.61 558.75 1568.44 562.459 1566.59 562.584Z" fill="#004A26"/>
<mask id="mask0_9_37" style="mask-type:luminance" maskUnits="userSpaceOnUse" x="1233" y="36" width="208" height="613">
<path d="M1441 36H1233V649H1441V36Z" fill="white"/>
</mask>
<g mask="url(#mask0_9_37)">
<path d="M1374.69 603.853C1376.11 636.655 1390.58 649 1390.58 649L1310.44 644.767C1310.44 644.767 1327.39 641.593 1327.39 514.264C1329.15 462.415 1329.86 377.058 1329.86 377.058C1329.86 377.058 1324.52 383.125 1320.68 386.581C1311.47 394.871 1293.85 403.512 1293.85 403.512C1293.85 403.512 1286.43 408.097 1277.25 404.922C1277.25 404.922 1300.78 392.67 1312.21 380.585C1324.56 370.004 1330.92 353.074 1330.92 353.074L1329.86 317.802C1329.86 317.802 1323.35 326.215 1319.62 331.911C1313.84 340.734 1315.03 365.066 1315.03 365.066C1315.03 365.066 1311.5 373.531 1305.14 373.531C1303.03 372.826 1306.37 364.235 1307.62 358.364C1308.86 352.514 1313.62 346.019 1311.5 343.55C1311.5 343.55 1305.14 347.43 1300.55 353.074C1293.49 363.655 1279.02 373.531 1279.02 373.531C1279.02 373.531 1275.49 375.295 1269.84 373.531C1269.13 371.415 1279.73 364.008 1277.25 360.833C1277.25 360.833 1268.44 364.743 1262.43 365.066C1256.56 365.381 1252.19 367.182 1247.6 362.597C1247.6 362.597 1304.79 331.205 1330.92 288.174C1331.98 283.236 1332.68 264.895 1330.92 250.434C1329.8 246.896 1329.63 244.575 1327.39 241.616C1327.39 241.616 1323.5 263.837 1320.68 268.775C1317.85 273.713 1315.74 280.062 1308.67 280.062L1311.15 262.074C1311.15 262.074 1311.85 254.667 1308.67 253.256L1296.67 280.062C1296.67 280.062 1291.02 289.585 1284.67 288.174C1284.67 288.174 1287.14 279.357 1289.61 272.655C1292.08 268.07 1294.2 265.601 1291.02 262.074C1291.02 262.074 1279.37 278.068 1268.78 284.295C1251.13 295.581 1247.6 292.054 1247.6 292.054C1247.6 292.054 1247.33 288.174 1255.72 281.473C1257.48 280.062 1260.66 278.651 1261.37 274.066C1261.37 274.066 1245.83 280.767 1227.83 282.531C1223.24 282.531 1215.82 282.531 1213 276.888C1217.59 275.829 1228.89 272.655 1228.89 272.655L1250.42 265.601C1258.83 262.846 1270.55 256.783 1270.55 256.783C1270.55 256.783 1267.37 254.667 1262.78 254.667C1262.78 253.256 1265.42 251.896 1267.37 250.434C1277.61 247.965 1282.46 248.694 1291.02 244.791C1297.6 241.792 1300.61 239.841 1306.2 235.267C1310.64 231.644 1315.44 226.57 1319.62 221.765C1319.62 221.765 1303 237.031 1299 232.093C1298.79 230.705 1299 228.5 1299 228.5C1299 228.5 1286.44 239.563 1284.67 233.857C1288 228.5 1288 225.039 1288 225.039C1288 225.039 1280.32 228.085 1275.5 227C1273.47 226.543 1272.16 226.353 1270.55 225.039C1268.78 221.765 1284.67 217.5 1284.67 216C1284.67 216 1276.84 216.542 1272 215.5C1268.11 214.662 1265.21 214.844 1262.43 212C1264 209.5 1274.35 209.407 1282 207.756C1293.38 205.298 1300.62 206.466 1311.15 201.5C1321.67 196.536 1334.5 183 1334.5 183L1338 166C1338 166 1332.16 176.524 1326.5 181.5C1324.01 183.693 1319.62 186.5 1319.62 186.5L1320.68 179C1320.68 179 1312.5 185.58 1306.2 186.5C1303.42 186.906 1299 186.5 1299 186.5L1311.15 172.5C1311.15 172.5 1296 184 1291.02 179C1292.5 175.879 1295 175 1296.67 170.5C1294 168 1282.85 168.97 1282 162.5C1289.61 161.5 1294.62 163.92 1302.5 162.5C1314.14 160.401 1322.04 158.381 1329.86 149.5C1334.26 144.496 1338 134.5 1338 134.5C1338 134.5 1327.46 142.001 1319.62 143C1316.34 143.418 1316 143.937 1311.15 143C1307.5 142.5 1315.03 136.5 1315.03 136.5H1299C1299 136.5 1305.54 133.73 1306.2 130C1300.55 127.5 1299.17 124.912 1300.55 121C1304.5 123.5 1308.24 124.39 1313.5 125C1319.54 125.701 1329 123.5 1329 123.5L1340.5 103C1340.5 103 1324.5 116.5 1322.5 111L1324.5 107.5C1324.5 107.5 1311.56 108 1315.03 105.5C1318.5 103 1324.85 102.488 1329.86 98.5C1337.95 92.057 1343 75.5 1343 75.5C1343 75.5 1331.5 86.5 1326.5 82C1324.5 78.5 1331.71 77.1053 1334.5 73.5C1338.62 68.1748 1343 58.5 1343 58.5C1343 58.5 1346 36 1347.5 36C1349 36 1350.02 51.2849 1353.5 60.5C1355.79 66.5585 1356.01 70.9061 1360.57 75.5C1364.16 79.1106 1370.5 80.5 1371.87 82C1371.87 85.5 1363 86.5 1363 86.5C1363 86.5 1367.28 91.5 1367.28 94C1367.28 96.5 1353.5 88.5 1353.5 88.5C1353.5 88.5 1356.44 99.616 1360.57 105.5C1364.11 110.539 1366.24 114.007 1371.87 116.5C1378.42 119.403 1390.23 116.5 1390.23 116.5C1390.23 116.5 1389 121 1384.93 121C1385.08 123.588 1389.02 122.704 1390.23 125C1388 127.5 1376.46 125 1376.46 125C1376.46 125 1380.49 127.41 1381.4 130C1379 133.5 1367.28 127.5 1367.28 127.5C1367.28 127.5 1370.3 130.848 1370.5 133.5C1365.5 134.5 1357 127.5 1357 127.5C1357 127.5 1358.06 135.025 1360.57 139C1364.55 145.286 1369.5 146.872 1376.46 149.5C1383.87 152.298 1394 149.5 1396.58 152C1395.3 155.164 1390.23 158 1390.23 158C1390.23 158 1392.5 161.5 1395.52 162.5C1394 166 1384.93 162.5 1384.93 162.5C1384.93 162.5 1385.5 165 1387.5 168C1384.93 170 1376.46 166 1376.46 166C1376.46 166 1377 168.5 1378.22 170.5C1378.25 174.594 1370 164 1370 164C1370 164 1369.5 166 1370 168C1369.09 172 1357 158 1357 158C1357 158 1357.38 164.361 1359 168C1362.5 175.875 1376.46 181.5 1376.46 181.5C1376.46 181.5 1389.46 187.833 1397.99 186.5C1404.64 185.462 1408 182 1413.5 179C1417.5 181 1410.5 186.5 1410.5 186.5C1410.5 186.5 1416.5 190 1420.5 191C1422.64 196.485 1405.5 192.5 1405.5 192.5C1405.5 192.5 1408.5 196.5 1410.5 199C1410.96 204.831 1395.52 199 1395.52 199L1397.99 207.756L1381.4 199V207.756L1392.7 219.043C1392.7 219.043 1400.32 227.279 1400.82 233.857C1401.18 238.654 1397.99 245.849 1397.99 245.849C1397.99 245.849 1396.8 241.213 1395.52 238.442C1392.74 232.38 1384.93 225.039 1384.93 225.039C1384.93 225.039 1384.93 233.857 1385.99 237.031C1385.99 237.031 1381.05 236.326 1379.28 232.093C1375.75 226.45 1375.72 220.485 1371.87 214.105C1370.29 211.485 1367.28 207.756 1367.28 207.756V235.267C1367.28 235.267 1372.16 243.809 1376.46 248.318C1381.84 253.962 1386.7 255.019 1392.7 259.957C1396.38 263.797 1398.47 266.118 1400.82 270.891C1404.93 279.251 1404 294.523 1404 294.523C1404 294.523 1400.82 283.236 1396.58 278.298C1392.35 273.36 1390.23 274.066 1390.23 274.066C1390.23 274.066 1392.7 280.415 1392.7 284.295C1392.7 288.174 1393.4 292.407 1390.23 292.054C1388.11 289.938 1382.46 276.535 1378.22 265.601C1374.52 261.555 1367.28 256.783 1367.28 256.783V301.578C1367.28 301.578 1373.68 307.318 1378.22 310.395C1383.18 313.75 1387 314.03 1391.64 317.802C1397.82 322.825 1400.53 326.856 1404 334.027C1408.23 343.55 1408.23 365.419 1408.23 365.419C1408.23 365.419 1404.03 350.798 1397.99 343.55C1394.87 339.804 1388.82 335.085 1388.82 335.085C1387.76 340.023 1391.64 355.543 1391.64 355.543C1391.64 355.543 1392.7 363.655 1388.82 365.419C1385.99 365.419 1381.4 347.078 1381.4 347.078C1381.4 347.078 1378.22 336.496 1378.22 328.736C1374.34 325.209 1367.28 320.271 1367.28 320.271L1368.34 383.76C1368.34 383.76 1399.76 417.267 1416 430.318C1416 430.318 1402.1 429.972 1394.46 426.085C1386.73 422.148 1378.22 410.919 1378.22 410.919C1378.22 410.919 1378.18 412.21 1378.22 413.035C1380.34 420.442 1385.99 427.849 1385.99 427.849C1385.99 427.849 1387.58 431.527 1387.05 433.845C1385.99 435.961 1379.79 429.098 1376.11 425.027C1372.36 420.887 1368.34 413.035 1368.34 413.035C1368.34 413.035 1371.52 570.345 1374.69 603.853Z" fill="url(#paint4_linear_9_37)"/>
</g>
<path d="M1590.2 612L1603.84 475.908C1603.84 475.908 1610.17 301.643 1607.74 300.814C1605.3 299.984 1579 323.219 1568.28 329.028C1557.56 334.837 1532.72 343.55 1533.69 337.326C1534.67 331.102 1608.71 287.121 1607.74 276.748C1606.76 266.376 1611.64 231.108 1607.74 231.108C1603.84 231.108 1569.25 289.611 1563.89 288.366C1558.54 287.121 1572.66 246.875 1568.28 250.609C1563.89 254.343 1515.18 297.079 1513.72 288.366C1512.26 279.653 1522.97 273.844 1521.51 272.599C1520.05 271.355 1491.31 279.238 1481.57 276.748C1476.38 275.424 1541.49 249.779 1557.07 239.821C1572.66 229.863 1607.74 197.5 1607.74 197.5C1607.74 197.5 1612.12 136.092 1609.2 134.847C1606.28 133.603 1602.87 139.826 1601.89 142.316C1600.92 144.805 1597.02 169.7 1593.61 175.094C1590.2 180.488 1581.43 187.957 1579 188.371C1576.56 188.786 1583.87 148.955 1579 154.763C1574.12 160.572 1551.72 202.064 1547.33 197.5C1542.95 192.936 1559.02 163.062 1554.15 165.551C1549.28 168.041 1536.8 185.02 1521.51 192.936C1511.31 198.219 1498.13 204.553 1493.26 202.894C1488.39 201.234 1517.13 180.073 1513.23 179.658C1509.33 179.243 1487.9 189.201 1472.8 190.446C1457.7 191.691 1439.18 187.127 1445.52 184.222C1451.85 181.318 1524.92 162.232 1523.46 160.157C1522 158.083 1512.74 158.083 1513.23 156.008C1513.72 153.934 1528.33 156.008 1552.2 144.805C1576.07 133.603 1599.46 112.857 1604.81 105.803C1610.17 98.7498 1609.2 98.3349 1609.2 98.3349C1609.2 98.3349 1611.64 59.7478 1609.2 59.7478C1606.76 59.7478 1604.33 63.897 1600.92 68.8759C1597.51 73.8549 1585.33 103.314 1579 103.314C1572.66 103.314 1583.87 85.0576 1579 85.0576C1574.12 85.0576 1548.79 126.134 1542.46 125.719C1536.13 125.304 1552.2 89.2068 1547.33 92.941C1542.46 96.6753 1504.46 139.826 1498.13 134.847C1491.8 129.868 1516.15 106.218 1509.33 107.048C1502.51 107.878 1472.31 131.528 1465 132.358C1457.7 133.188 1485.46 104.144 1481.57 105.803C1477.67 107.463 1435.29 131.528 1429.44 128.209C1423.6 124.889 1458.18 108.708 1455.26 107.048C1452.34 105.388 1410.44 121.155 1406.54 120.74C1402.65 120.325 1421.65 108.708 1417.75 107.048C1413.85 105.388 1394.85 105.803 1385.6 99.1647C1376.34 92.5261 1476.92 98.83 1528.33 78.8339C1563.28 65.2408 1607.25 41.4915 1609.2 31.1186C1611.15 20.7458 1611.15 0 1611.15 0C1611.15 0 1579.48 34.438 1569.25 34.438C1559.02 34.4379 1579.48 17.8414 1574.12 16.5966C1568.77 15.3519 1551.18 34.5012 1532.72 38.1722C1524.72 39.7632 1514.69 41.4915 1511.77 39.8319C1508.85 38.1722 1534.67 19.9159 1532.72 16.5966C1530.77 13.2773 1503.6 28.8411 1483.51 29.459C1475.32 29.7111 1465 30.2888 1462.57 28.2142C1460.13 26.1397 1490.33 14.937 1489.85 12.8624C1489.36 10.7878 1455.26 12.0325 1452.82 8.29831C1450.39 4.56412 1489.85 0 1489.85 0H1611.15H1655.97V8.29831V28.2142C1654.99 28.4285 1656.94 78.0041 1656.94 80.9085C1665.63 83.6057 1684 88.5 1685.5 89C1687 89.5 1734.5 88.5 1736 89C1737.5 89.5 1768.5 98.9892 1768 99.9946C1767.5 101 1744.5 101 1744.5 102.5C1744.5 104 1771 115.5 1771 117C1771 118.5 1750 116 1750 116C1750 116 1708.5 107 1708 109C1707.5 111 1729.19 129.256 1730 130.5C1730.81 131.744 1730.58 134.837 1710.5 126.5C1690.42 118.163 1684.5 108 1683 108C1681.5 108 1691.5 133 1689.5 133C1687.5 133 1656.45 99.9946 1656.45 99.9946C1654.99 102.484 1656.94 132.358 1656.94 135.677C1656.94 138.997 1748.08 174.264 1751 175.094C1753.92 175.924 1682.5 160 1681 164C1679.5 168 1727.4 214.085 1723.5 214.5C1719.6 214.915 1676.91 173.85 1671.55 169.285C1666.2 164.721 1659.38 159.327 1656.94 159.742C1654.5 160.157 1656.94 207.458 1656.94 212.022C1656.94 216.586 1734.72 249.779 1743 250.609C1751.28 251.439 1743 262.881 1743 262.881L1678.5 237.986C1678.5 237.986 1730.81 296.904 1723.5 294C1716.19 291.096 1673.5 247.704 1672.04 244.8C1670.58 241.896 1661.32 234.012 1658.4 234.427C1655.48 234.842 1656.45 301.643 1659.38 309.112C1662.3 316.58 1700.98 340.542 1719 350.5C1737.02 360.458 1734.5 370.5 1723.5 363.051C1712.5 355.602 1676.43 340.231 1673.5 341.475C1670.58 342.72 1700.94 375.117 1698.5 383C1696.06 390.883 1661.32 341.475 1659.86 343.965C1658.4 346.454 1663.27 463.045 1663.27 463.045L1666.68 529.017L1680.81 609.511L1590.2 612Z" fill="#064530"/>
<path d="M1590.2 612L1603.84 475.908C1603.84 475.908 1610.17 301.643 1607.74 300.814C1605.3 299.984 1579 323.219 1568.28 329.028C1557.56 334.837 1532.72 343.55 1533.69 337.326C1534.67 331.102 1608.71 287.121 1607.74 276.748C1606.76 266.376 1611.64 231.108 1607.74 231.108C1603.84 231.108 1569.25 289.611 1563.89 288.366C1558.54 287.121 1572.66 246.875 1568.28 250.609C1563.89 254.343 1515.18 297.079 1513.72 288.366C1512.26 279.653 1522.97 273.844 1521.51 272.599C1520.05 271.355 1491.31 279.238 1481.57 276.748C1476.38 275.424 1541.49 249.779 1557.07 239.821C1572.66 229.863 1607.74 197.5 1607.74 197.5C1607.74 197.5 1612.12 136.092 1609.2 134.847C1606.28 133.603 1602.87 139.826 1601.89 142.316C1600.92 144.805 1597.02 169.7 1593.61 175.094C1590.2 180.488 1581.43 187.957 1579 188.371C1576.56 188.786 1583.87 148.955 1579 154.763C1574.12 160.572 1551.72 202.064 1547.33 197.5C1542.95 192.936 1559.02 163.062 1554.15 165.551C1549.28 168.041 1536.8 185.02 1521.51 192.936C1511.31 198.219 1498.13 204.553 1493.26 202.894C1488.39 201.234 1517.13 180.073 1513.23 179.658C1509.33 179.243 1487.9 189.201 1472.8 190.446C1457.7 191.691 1439.18 187.127 1445.52 184.222C1451.85 181.318 1524.92 162.232 1523.46 160.157C1522 158.083 1512.74 158.083 1513.23 156.008C1513.72 153.934 1528.33 156.008 1552.2 144.805C1576.07 133.603 1599.46 112.857 1604.81 105.803C1610.17 98.7498 1609.2 98.3349 1609.2 98.3349C1609.2 98.3349 1611.64 59.7478 1609.2 59.7478C1606.76 59.7478 1604.33 63.897 1600.92 68.8759C1597.51 73.8549 1585.33 103.314 1579 103.314C1572.66 103.314 1583.87 85.0576 1579 85.0576C1574.12 85.0576 1548.79 126.134 1542.46 125.719C1536.13 125.304 1552.2 89.2068 1547.33 92.941C1542.46 96.6753 1504.46 139.826 1498.13 134.847C1491.8 129.868 1516.15 106.218 1509.33 107.048C1502.51 107.878 1472.31 131.528 1465 132.358C1457.7 133.188 1485.46 104.144 1481.57 105.803C1477.67 107.463 1435.29 131.528 1429.44 128.209C1423.6 124.889 1458.18 108.708 1455.26 107.048C1452.34 105.388 1410.44 121.155 1406.54 120.74C1402.65 120.325 1421.65 108.708 1417.75 107.048C1413.85 105.388 1394.85 105.803 1385.6 99.1647C1376.34 92.5261 1476.92 98.83 1528.33 78.8339C1563.28 65.2408 1607.25 41.4915 1609.2 31.1186C1611.15 20.7458 1611.15 0 1611.15 0C1611.15 0 1579.48 34.438 1569.25 34.438C1559.02 34.4379 1579.48 17.8414 1574.12 16.5966C1568.77 15.3519 1551.18 34.5012 1532.72 38.1722C1524.72 39.7632 1514.69 41.4915 1511.77 39.8319C1508.85 38.1722 1534.67 19.9159 1532.72 16.5966C1530.77 13.2773 1503.6 28.8411 1483.51 29.459C1475.32 29.7111 1465 30.2888 1462.57 28.2142C1460.13 26.1397 1490.33 14.937 1489.85 12.8624C1489.36 10.7878 1455.26 12.0325 1452.82 8.29831C1450.39 4.56412 1489.85 0 1489.85 0H1655.97C1655.97 0 1655.97 7.09661 1655.97 8.29831V28.2142C1654.99 28.4285 1656.94 78.0041 1656.94 80.9085C1665.63 83.6057 1684 88.5 1685.5 89C1687 89.5 1734.5 88.5 1736 89C1737.5 89.5 1768.5 98.9892 1768 99.9946C1767.5 101 1744.5 101 1744.5 102.5C1744.5 104 1771 115.5 1771 117C1771 118.5 1750 116 1750 116C1750 116 1708.5 107 1708 109C1707.5 111 1729.19 129.256 1730 130.5C1730.81 131.744 1730.58 134.837 1710.5 126.5C1690.42 118.163 1684.5 108 1683 108C1681.5 108 1691.5 133 1689.5 133C1687.5 133 1656.45 99.9946 1656.45 99.9946C1654.99 102.484 1656.94 132.358 1656.94 135.677C1656.94 138.997 1748.08 174.264 1751 175.094C1753.92 175.924 1682.5 160 1681 164C1679.5 168 1727.4 214.085 1723.5 214.5C1719.6 214.915 1676.91 173.85 1671.55 169.285C1666.2 164.721 1659.38 159.328 1656.94 159.742C1654.5 160.157 1656.94 207.458 1656.94 212.022C1656.94 216.586 1734.72 249.779 1743 250.609C1751.28 251.439 1743 262.881 1743 262.881L1678.5 237.986C1678.5 237.986 1730.81 296.904 1723.5 294C1716.19 291.096 1673.5 247.704 1672.04 244.8C1670.58 241.896 1661.32 234.012 1658.4 234.427C1655.48 234.842 1656.45 301.643 1659.38 309.112C1662.3 316.58 1700.98 340.542 1719 350.5C1737.02 360.458 1734.5 370.5 1723.5 363.051C1712.5 355.602 1676.43 340.231 1673.5 341.475C1670.58 342.72 1700.94 375.117 1698.5 383C1696.06 390.883 1661.32 341.475 1659.86 343.965C1658.4 346.454 1663.27 463.045 1663.27 463.045L1666.68 529.017L1680.81 609.511L1590.2 612Z" stroke="#064530"/>
<path d="M159.72 616L145.99 479.018C145.99 479.018 139.616 303.615 142.068 302.78C144.519 301.944 170.997 325.332 181.785 331.178C192.572 337.025 217.579 345.795 216.599 339.531C215.618 333.266 141.087 288.998 142.068 278.557C143.048 268.117 138.145 232.618 142.068 232.618C145.99 232.618 180.804 291.504 186.198 290.251C191.592 288.998 177.372 248.488 181.785 252.247C186.198 256.005 235.231 299.021 236.702 290.251C238.173 281.481 227.386 275.634 228.857 274.381C230.328 273.128 259.258 281.063 269.064 278.557C274.283 277.224 208.753 251.412 193.063 241.388C177.372 231.365 142.068 198.79 142.068 198.79C142.068 198.79 137.655 136.982 140.597 135.729C143.539 134.476 146.971 140.74 147.952 143.246C148.932 145.752 152.855 170.809 156.287 176.239C159.72 181.668 168.546 189.185 170.997 189.603C173.449 190.02 166.094 149.928 170.997 155.775C175.901 161.622 198.456 203.384 202.869 198.79C207.282 194.197 191.101 164.127 196.005 166.633C200.908 169.139 213.468 186.229 228.857 194.197C239.128 199.514 252.393 205.89 257.296 204.22C262.2 202.549 233.27 181.25 237.193 180.832C241.115 180.415 262.69 190.438 277.89 191.691C293.091 192.944 311.723 188.35 305.349 185.426C298.975 182.503 225.425 163.292 226.896 161.204C228.367 159.116 237.683 159.116 237.193 157.028C236.702 154.94 221.992 157.028 197.966 145.752C173.94 134.476 150.403 113.595 145.01 106.495C139.616 99.3952 140.597 98.9776 140.597 98.9776C140.597 98.9776 138.145 60.1383 140.597 60.1383C143.048 60.1383 145.5 64.3146 148.932 69.3261C152.365 74.3376 164.623 103.989 170.997 103.989C177.372 103.989 166.094 85.6136 170.997 85.6136C175.901 85.6136 201.398 126.959 207.773 126.541C214.147 126.123 197.966 89.7898 202.869 93.5485C207.773 97.3071 246.019 140.74 252.393 135.729C258.767 130.717 234.251 106.912 241.115 107.748C247.98 108.583 278.381 132.388 285.736 133.223C293.091 134.058 265.142 104.824 269.064 106.495C272.987 108.165 315.646 132.388 321.53 129.047C327.414 125.706 292.6 109.418 295.542 107.748C298.484 106.077 340.653 121.947 344.576 121.529C348.498 121.112 329.375 109.418 333.298 107.748C337.221 106.077 356.344 106.495 365.66 99.8129C374.976 93.1308 273.737 99.476 221.992 79.3492C186.817 65.6672 142.558 41.7627 140.597 31.322C138.635 20.8814 138.635 0 138.635 0C138.635 0 170.507 34.6631 180.804 34.6631C191.101 34.663 170.507 17.958 175.901 16.7051C181.295 15.4522 198.998 34.7267 217.579 38.4217C225.632 40.0231 235.722 41.7627 238.664 40.0922C241.606 38.4217 215.618 20.0461 217.579 16.7051C219.541 13.3641 246.885 29.0296 267.103 29.6515C275.352 29.9053 285.736 30.4868 288.187 28.3986C290.639 26.3105 260.238 15.0346 260.729 12.9464C261.219 10.8583 295.542 12.1111 297.994 8.35254C300.446 4.59395 260.729 0 260.729 0H138.635H93.5244L92.5438 81.4373C83.8003 84.1521 65.3069 89.0784 63.7971 89.5817C62.2873 90.085 14.4768 89.0784 12.967 89.5817C11.4573 90.085 -19.7454 99.6362 -19.2421 100.648C-18.7389 101.66 4.41143 101.66 4.41143 103.17C4.41143 104.68 -22.2617 116.255 -22.2617 117.765C-22.2617 119.274 -1.12452 116.758 -1.12452 116.758C-1.12452 116.758 40.6468 107.699 41.15 109.712C41.6533 111.725 19.8243 130.101 19.0063 131.353C18.1882 132.605 18.4232 135.718 38.6337 127.327C58.8442 118.935 64.8037 108.706 66.3135 108.706C67.8232 108.706 57.7579 133.869 59.771 133.869C61.784 133.869 93.0341 100.648 93.0341 100.648C94.5051 103.154 92.5438 133.223 92.5438 136.564L81.9997 143.246L46.9997 149.5C46.9997 149.5 28.4997 146.5 26.2527 146.11C24.0057 145.72 7.75268 141.492 6.99966 143.246C6.24664 145 7.99966 147 10.9997 149.5C13.9997 152 18.9997 151.5 19.9997 153.5L6.24664 157.548C6.24664 157.548 -0.000338078 160 -2.50034 161.204C-3.84131 161.85 -25.5003 169 -16.5003 171C-7.50034 173 -1.57709 172.05 6.99966 169.5C25.4997 164 18.4997 167.767 35.4997 162.5C52.4997 157.233 10.4997 190 22.4997 184.5C34.4997 179 58.9997 169.5 58.9997 169.5C58.9997 169.5 70.9997 168.205 43.9997 189.603C16.9997 211 50.9997 207.561 62.4997 194.197C73.9997 180.832 90.5153 160.441 92.5438 160.786C94.9954 161.204 92.9997 203 92.5438 204.22C92.3325 204.785 79.2042 220.715 60.4997 234.598C57.0405 237.166 53.5102 239.818 49.9997 242.5C31.5238 256.617 9.93103 267.794 6.99966 270.5C0.499661 276.5 3.49966 275 16.4997 275C29.4997 275 37.2366 254.77 36.4997 278.557C35.7628 302.345 54.5422 247.753 59.771 250C64.9997 252.247 71.4997 276.5 72.9997 277C74.4997 277.5 91.0728 235.959 91.0728 235.959C94.0148 236.377 93.0341 303.615 90.0921 311.132C90.0921 311.132 80.5003 325.969 73.9997 336C67.4991 346.031 36.548 365.065 38.9997 373C39.941 376.047 54.5343 371.1 62.9997 365C76.5816 355.213 87.1956 344.669 88.1018 346.213C89.5728 348.719 86.1694 466.072 86.1694 466.072L82.7371 532.475L68.5174 613.494L159.72 616Z" fill="#064530"/>
<path d="M159.72 616L145.99 479.018C145.99 479.018 139.616 303.615 142.068 302.78C144.519 301.944 170.998 325.332 181.785 331.178C192.572 337.025 217.579 345.795 216.599 339.531C215.618 333.266 141.087 288.998 142.068 278.557C143.048 268.117 138.145 232.618 142.068 232.618C145.99 232.618 180.804 291.504 186.198 290.251C191.592 288.998 177.372 248.488 181.785 252.247C186.198 256.005 235.231 299.021 236.702 290.251C238.173 281.481 227.386 275.634 228.857 274.381C230.328 273.128 259.258 281.063 269.064 278.557C274.283 277.224 208.753 251.412 193.063 241.388C177.372 231.365 142.068 198.79 142.068 198.79C142.068 198.79 137.655 136.982 140.597 135.729C143.539 134.476 146.971 140.74 147.952 143.246C148.932 145.752 152.855 170.809 156.287 176.239C159.72 181.668 168.546 189.185 170.997 189.603C173.449 190.02 166.094 149.928 170.997 155.775C175.901 161.622 198.456 203.384 202.869 198.79C207.282 194.197 191.101 164.127 196.005 166.633C200.908 169.139 213.468 186.229 228.857 194.197C239.128 199.514 252.393 205.89 257.296 204.22C262.2 202.549 233.27 181.25 237.193 180.832C241.115 180.415 262.69 190.438 277.89 191.691C293.091 192.944 311.723 188.35 305.349 185.426C298.975 182.503 225.425 163.292 226.896 161.204C228.367 159.116 237.683 159.116 237.193 157.028C236.702 154.94 221.992 157.028 197.966 145.752C173.94 134.476 150.403 113.595 145.01 106.495C139.616 99.3952 140.597 98.9776 140.597 98.9776C140.597 98.9776 138.145 60.1383 140.597 60.1383C143.048 60.1383 145.5 64.3146 148.932 69.3261C152.365 74.3376 164.623 103.989 170.997 103.989C177.372 103.989 166.094 85.6136 170.997 85.6136C175.901 85.6136 201.398 126.959 207.773 126.541C214.147 126.123 197.966 89.7898 202.869 93.5485C207.773 97.3071 246.019 140.74 252.393 135.729C258.767 130.717 234.251 106.912 241.115 107.748C247.98 108.583 278.381 132.388 285.736 133.223C293.091 134.058 265.142 104.824 269.064 106.495C272.987 108.165 315.646 132.388 321.53 129.047C327.414 125.706 292.6 109.418 295.542 107.748C298.484 106.077 340.653 121.947 344.576 121.529C348.498 121.112 329.375 109.418 333.298 107.748C337.221 106.077 356.344 106.495 365.66 99.8129C374.976 93.1308 273.737 99.476 221.992 79.3491C186.817 65.6672 142.558 41.7627 140.597 31.322C138.635 20.8814 138.635 0 138.635 0C138.635 0 170.507 34.6631 180.804 34.6631C191.101 34.663 170.507 17.958 175.901 16.7051C181.295 15.4522 198.998 34.7267 217.579 38.4217C225.632 40.0231 235.722 41.7627 238.664 40.0922C241.606 38.4217 215.618 20.0461 217.579 16.7051C219.541 13.3641 246.885 29.0296 267.103 29.6515C275.352 29.9053 285.736 30.4868 288.187 28.3986C290.639 26.3105 260.238 15.0346 260.729 12.9464C261.219 10.8583 295.542 12.1111 297.994 8.35254C300.446 4.59395 260.729 0 260.729 0H93.5244L92.5438 81.4373C83.8003 84.1521 65.3069 89.0784 63.7971 89.5817C62.2873 90.085 14.4769 89.0784 12.967 89.5817C11.4572 90.085 -19.7454 99.6362 -19.2421 100.648C-18.7389 101.66 4.41143 101.66 4.41143 103.17C4.41143 104.68 -22.2617 116.255 -22.2617 117.765C-22.2617 119.274 -1.12452 116.758 -1.12452 116.758C-1.12452 116.758 40.6468 107.699 41.15 109.712C41.6533 111.725 19.8243 130.101 19.0063 131.353C18.1882 132.605 18.4232 135.718 38.6337 127.327C58.8442 118.935 64.8036 108.706 66.3135 108.706C67.8233 108.706 57.7579 133.869 59.771 133.869C61.784 133.869 93.0341 100.648 93.0341 100.648C94.5051 103.154 92.5438 133.223 92.5438 136.564L81.9997 143.246L46.9997 149.5C46.9997 149.5 28.4997 146.5 26.2527 146.11C24.0057 145.72 7.75268 141.492 6.99966 143.246C6.24664 145 7.99966 147 10.9997 149.5C13.9997 152 18.9997 151.5 19.9997 153.5L6.24664 157.548C6.24664 157.548 -0.000338078 160 -2.50034 161.204C-3.84132 161.85 -25.5003 169 -16.5003 171C-7.50034 173 -1.57708 172.05 6.99966 169.5C25.4997 164 18.4997 167.767 35.4997 162.5C52.4997 157.233 10.4997 190 22.4997 184.5C34.4997 179 58.9997 169.5 58.9997 169.5C58.9997 169.5 70.9997 168.205 43.9997 189.603C16.9997 211 50.9997 207.561 62.4997 194.197C73.9997 180.832 90.5153 160.441 92.5438 160.786C94.9954 161.204 92.9997 203 92.5438 204.22C92.3325 204.785 79.2042 220.715 60.4997 234.598C57.0405 237.166 53.5102 239.818 49.9997 242.5C31.5238 256.617 9.93102 267.794 6.99966 270.5C0.499661 276.5 3.49966 275 16.4997 275C29.4997 275 37.2366 254.77 36.4997 278.557C35.7628 302.345 54.5422 247.753 59.771 250C64.9997 252.247 71.4997 276.5 72.9997 277C74.4997 277.5 91.0728 235.959 91.0728 235.959C94.0148 236.377 93.0341 303.615 90.0921 311.132C90.0921 311.132 80.5003 325.969 73.9997 336C67.4991 346.031 36.548 365.065 38.9997 373C39.9411 376.047 54.5343 371.1 62.9997 365C76.5816 355.213 87.1956 344.669 88.1018 346.213C89.5728 348.719 86.1694 466.072 86.1694 466.072L82.7371 532.475L68.5174 613.494L159.72 616Z" stroke="#064530"/>
<path d="M-12 599.364C140.588 587.052 228.237 580.536 383.201 575.57C580.273 578.697 841.17 575.444 977.166 578.211C1113.16 580.978 1557.95 572.835 1579.27 575.57C1612.98 579.896 1921 575.57 1921 575.57L1921.23 625.897C1921.23 625.897 1674.81 602.103 1579.5 614C1535.39 619.506 1422.73 610.583 1304.95 613.424L1126.02 626.003C1095.8 628.674 1067.79 630.942 1043.42 631.81C1012.73 632.902 986.465 641.543 976.004 646.951C965.542 652.359 946.025 645.964 921.373 640.462C887.743 632.957 841.463 629.954 788.864 627.484C744.657 625.407 694.713 635.054 638.92 630.728C583.127 626.402 251.855 636.136 221.634 636.136C191.413 636.136 322.759 619.913 322.759 613.424C322.759 606.934 -12 626.402 -12 626.402V599.364Z" fill="#06402A"/>
<path d="M1043.42 631.81C1012.73 632.902 986.465 641.543 976.004 646.951C965.542 652.359 946.025 645.964 921.373 640.462C887.743 632.957 841.463 629.954 788.864 627.484C744.657 625.407 694.713 635.054 638.92 630.728C583.127 626.402 251.855 636.136 221.634 636.136C191.413 636.136 322.759 619.913 322.759 613.424C322.759 606.934 -12 626.402 -12 626.402V599.364C140.588 587.052 228.237 580.536 383.201 575.57C580.273 578.697 841.17 575.444 977.166 578.211C1113.16 580.978 1557.95 572.835 1579.27 575.57C1612.98 579.896 1921 575.57 1921 575.57L1921.23 625.897C1921.23 625.897 1674.81 602.103 1579.5 614C1535.39 619.506 1422.73 610.583 1304.95 613.424M1043.42 631.81C1112.32 629.356 1210.36 615.705 1304.95 613.424M1043.42 631.81L1304.95 613.424" stroke="#064530"/>
<path d="M1921 949L0 998V895.5C826.095 776.148 1388.57 741.644 1921 713V949Z" fill="#0B5B34" stroke="#0B5B34"/>
<path d="M1757.39 894.155C1759.25 893.691 1763.78 885.8 1765.17 883.48C1765.17 883.48 1750.78 865.843 1752.64 864.451C1754.5 863.058 1765.17 845.886 1765.17 845.886C1765.17 845.886 1774.92 826.392 1768.88 824.072C1762.85 821.751 1751.25 852.384 1748.46 852.383C1745.68 852.383 1741.96 837.531 1742.43 835.675C1742.89 833.818 1773.52 792.511 1766.56 786.942C1763.46 784.463 1754.45 787.29 1748.93 794.832C1742.04 804.237 1739.64 818.502 1737.79 818.966C1735.93 819.43 1732.44 804.371 1733.15 802.258C1733.85 800.144 1745.16 791.576 1751.71 778.587C1758.1 765.906 1759.08 750.942 1754.5 748.419C1745.21 743.314 1731.29 789.726 1729.9 789.726C1728.5 789.726 1725.02 775.803 1726.18 773.482C1727.34 771.161 1736.58 761.274 1741.04 748.419C1744.95 737.112 1742.89 724.749 1737.79 723.356C1732.68 721.964 1724.33 758.874 1721.54 758.874C1718.76 758.874 1717.83 744.706 1718.29 740.529C1718.76 736.352 1725.21 730.297 1728.97 719.643C1732.39 709.957 1732.46 700.305 1728.04 698.758C1718.76 695.509 1716.9 724.749 1714.12 724.749C1711.33 724.749 1712.26 686.691 1703.91 686.691C1699.67 686.691 1696.41 700.761 1698.8 714.074C1701.12 727 1708.55 737.744 1709.48 740.529C1710.4 743.314 1714.58 760.022 1712.72 760.022C1710.87 760.022 1701.59 736.816 1690.91 738.673C1685.31 739.647 1687.32 751.64 1696.48 761.415C1704.77 770.26 1716.73 776.406 1717.83 779.052C1720.15 784.621 1721.08 789.726 1719.69 789.726C1718.29 789.726 1688.59 765.128 1682.56 772.09C1676.52 779.052 1721.54 802.258 1723.86 805.971C1726.18 809.684 1730.83 822.215 1729.9 822.679C1728.97 823.143 1695.55 791.583 1685.34 800.401C1675.13 809.22 1733.15 841.244 1736.39 846.35C1739.64 851.455 1742.43 857.489 1740.11 858.881C1737.79 860.274 1727.09 848.89 1713.19 844.029C1701.22 839.846 1688.35 840.49 1685.34 842.637C1678.84 847.278 1705.76 863.522 1708.08 864.451C1710.4 865.379 1741.96 870.02 1744.75 871.877C1747.53 873.733 1757.39 894.155 1757.39 894.155Z" fill="#06402A"/>
<path d="M1754.61 921.074C1752.75 921.538 1752.29 928.5 1752.29 928.5L1742.08 927.572L1743.01 922.466C1743.01 922.466 1734.65 919.682 1732.33 919.218C1730.01 918.753 1711.91 915.04 1704.95 910.399C1697.99 905.758 1692.88 891.834 1696.13 892.762C1699.38 893.691 1726.98 902.204 1747.65 912.256L1743.01 907.614C1743.01 907.614 1715.16 896.011 1710.52 892.762L1710.28 892.594C1705.23 889.061 1685.9 875.537 1684.99 872.341C1684.06 869.092 1697.99 869.556 1703.09 871.413C1708.2 873.269 1723.51 881.623 1726.76 883.944C1730.01 886.265 1749.04 902.045 1750.9 901.581C1752.75 901.117 1756 887.657 1756 887.657C1756 887.657 1764.82 862.594 1763.43 857.953C1762.04 853.312 1752.75 852.383 1747.65 846.814C1742.54 841.244 1737.44 829.641 1740.22 829.641C1743.01 829.641 1764.36 850.063 1766.68 848.206C1769 846.35 1772.25 825.464 1772.71 823.608C1773.18 821.751 1760.64 811.076 1757.86 807.827C1755.07 804.578 1750.43 790.655 1752.75 790.655C1755.07 790.655 1775.5 810.148 1775.96 808.756C1776.42 807.363 1779.21 793.904 1779.21 792.047C1779.21 790.191 1759.72 781.836 1756.47 777.659C1753.22 773.482 1739.76 752.596 1743.01 753.061C1744.66 753.297 1756.6 757.475 1766.21 764.2C1775.48 770.681 1781.99 779.516 1782.92 779.052C1783.85 778.587 1784.78 763.271 1783.39 760.022C1781.99 756.774 1764.82 749.348 1757.86 740.993C1750.9 732.639 1740.69 714.074 1743.01 714.074C1745.33 714.074 1759.25 720.108 1762.04 722.892C1764.82 725.677 1784.31 749.348 1786.17 748.883C1788.03 748.419 1788.49 725.213 1787.56 723.357C1786.63 721.5 1764.82 710.825 1762.5 707.576C1760.18 704.327 1747.18 683.442 1749.97 681.585C1752.75 679.729 1773.18 690.404 1775.96 693.652C1778.74 696.901 1788.49 715.93 1789.42 714.074C1790.35 712.217 1788.96 695.045 1788.96 693.652C1788.96 692.26 1772.6 682.837 1767.14 680.193C1761.68 677.548 1754.93 657.69 1757.86 656.522C1773.25 662.746 1787.56 682.513 1789.42 681.585C1791.28 680.657 1789.88 672.303 1789.42 670.446C1788.96 668.59 1783.39 668.126 1780.14 663.948C1776.89 659.771 1770.39 650.025 1769.46 643.991C1768.53 637.957 1767.61 622.177 1772.71 622.641C1777.82 623.105 1787.94 646.794 1789.42 646.312C1790.2 646.057 1788.31 636.926 1789.88 629.603C1791.29 623.051 1794.06 618 1796.85 618C1799.63 618 1803.25 623.037 1804.74 629.603C1806.22 636.169 1804.27 649.096 1803.34 650.953C1802.41 652.809 1800.09 655.594 1797.77 660.7C1795.45 665.805 1797.77 670.446 1797.77 670.446C1799.17 670.446 1807.98 656.058 1810.31 654.202C1812.63 652.345 1826.09 639.814 1828.87 644.919C1831.65 650.025 1826.55 664.413 1819.59 672.767C1812.63 681.121 1797.77 683.442 1797.77 687.619V700.614C1814.08 683.429 1832.98 682.74 1843.72 682.978C1854.47 683.215 1856.72 687.155 1846.97 693.652C1837.22 700.15 1831.65 701.078 1817.27 708.504C1802.88 715.93 1797.31 715.466 1796.38 717.323C1795.45 719.179 1793.6 740.065 1794.52 739.601C1795.45 739.137 1797.77 734.496 1812.63 727.534C1827.48 720.572 1835.83 721.964 1835.83 721.964C1843.27 725.587 1843.39 727.966 1838.62 732.639C1838.62 732.639 1824.69 743.778 1813.55 748.883C1802.41 753.989 1794.52 754.917 1794.06 755.381C1793.6 755.845 1791.28 769.769 1791.74 770.233C1792.2 770.697 1805.2 756.774 1812.63 753.989C1820.05 751.204 1836.3 749.812 1836.3 749.812C1839.57 751.384 1841.28 752.337 1839.54 756.774C1839.54 756.774 1824.69 771.626 1814.48 776.731C1804.27 781.836 1792.2 785.085 1789.42 786.013C1786.63 786.942 1784.31 805.507 1785.24 805.971C1786.17 806.435 1788.49 803.186 1791.28 800.865C1794.06 798.545 1805.66 787.87 1812.16 785.549C1818.66 783.229 1839.54 783.229 1839.54 783.229C1843.24 784.731 1843.9 785.753 1839.08 788.334C1839.08 788.334 1820.05 805.043 1810.77 809.22C1801.49 813.397 1784.78 817.574 1782.92 819.43C1781.07 821.287 1773.18 851.455 1774.57 851.455C1775.96 851.455 1791.28 838.46 1801.95 834.747C1812.63 831.034 1841.87 829.641 1841.87 829.641C1843.36 830.269 1844.55 830.546 1842.33 831.962C1842.33 831.962 1820.52 850.063 1814.48 851.455C1808.45 852.848 1773.64 863.523 1772.71 864.451C1771.78 865.379 1766.68 875.126 1767.14 875.59C1767.61 876.054 1794.06 860.274 1801.49 858.881C1808.91 857.489 1825.16 860.738 1825.16 861.666C1825.16 862.594 1815.87 875.59 1804.27 882.087C1792.67 888.585 1768.53 888.121 1767.14 888.121C1765.75 888.121 1755.54 913.184 1756.93 913.184C1758.32 913.184 1768.53 901.117 1786.63 899.724C1804.74 898.332 1826.09 903.901 1820.05 909.935C1814.02 915.969 1794.06 916.897 1786.63 917.825C1779.21 918.753 1756.47 920.61 1754.61 921.074Z" fill="#063F2D"/>
<path d="M75.7301 616C77.4225 615.582 81.5494 608.47 82.8187 606.378C82.8187 606.378 69.7026 590.481 71.395 589.226C73.0874 587.971 82.8187 572.492 82.8187 572.492C82.8187 572.492 91.7038 554.922 86.2035 552.83C80.7032 550.738 70.1257 578.349 67.5871 578.349C65.0485 578.349 61.6637 564.962 62.0868 563.289C62.5099 561.615 90.4345 524.383 84.088 519.362C81.2636 517.128 73.0472 519.676 68.0102 526.474C61.7292 534.951 59.5482 547.81 57.8558 548.228C56.1634 548.647 52.9825 535.073 53.6248 533.168C54.267 531.263 64.5814 523.539 70.5488 511.832C76.3755 500.401 77.2679 486.913 73.0874 484.64C64.6254 480.038 51.9324 521.872 50.6631 521.872C49.3938 521.872 46.2205 509.322 47.2783 507.23C48.336 505.139 56.7599 496.226 60.8175 484.64C64.3867 474.448 62.5099 463.304 57.8558 462.049C53.2017 460.794 45.5859 494.063 43.0473 494.063C40.5086 494.063 39.6624 481.293 40.0855 477.528C40.5086 473.763 46.3895 468.306 49.8169 458.702C52.933 449.971 53.0004 441.272 48.9707 439.877C40.5086 436.949 38.8162 463.304 36.2776 463.304C33.739 463.304 34.5852 429 26.9694 429C23.1054 429 20.1378 441.683 22.3153 453.682C24.4295 465.333 31.2004 475.018 32.0466 477.528C32.8928 480.038 36.7007 495.098 35.0083 495.098C33.3159 495.098 24.8539 474.181 15.1226 475.855C10.0141 476.733 11.852 487.543 20.1998 496.353C27.7539 504.327 38.6575 509.866 39.6624 512.251C41.778 517.271 42.6241 521.872 41.3548 521.872C40.0855 521.872 13.0071 499.7 7.50677 505.975C2.00647 512.251 43.0473 533.168 45.1628 536.515C47.2783 539.861 51.5093 551.157 50.6631 551.575C49.8169 551.993 19.3536 523.546 10.0454 531.494C0.737172 539.443 53.6248 568.309 56.5865 572.911C59.5482 577.512 62.0868 582.951 59.9713 584.206C57.8558 585.461 48.1086 575.2 35.4314 570.819C24.5198 567.048 12.7854 567.629 10.0454 569.564C4.12197 573.747 28.6618 588.389 30.7773 589.226C32.8928 590.063 61.6637 594.246 64.2023 595.919C66.7409 597.593 75.7301 616 75.7301 616Z" fill="#06402A"/>
<path d="M1920 926L-4 945.702V1081H1920V926Z" fill="#075032" stroke="#075032"/>
<path d="M318.831 1078.2C320.127 1078.2 318.291 1081.45 317.211 1083.07L337.46 1092C337.46 1092 337.46 1073.34 341.51 1072.52C345.56 1071.71 347.99 1070.9 347.99 1070.9C365.198 1074.86 385.345 1078.19 400.637 1072.52C423.316 1063.6 440.055 1043.31 436.275 1040.06C432.495 1036.82 410.416 1039.27 386.868 1044.93C366.82 1049.75 349.479 1059.54 347.99 1059.54C344.75 1059.54 352.849 1043.31 354.469 1041.69C356.089 1040.06 392.771 1039.95 408.736 1034.38C436.801 1024.59 455.349 1008.05 453.284 1005.98C450.044 1002.73 425.483 1008.38 400.637 1014.1C378.822 1019.11 359.655 1027.51 358.519 1027.89C356.089 1028.7 366.619 1005.17 368.238 1001.92C369.858 998.677 398.301 1005.01 423.316 998.677C447.453 992.57 463.004 979.201 461.384 974.332C459.764 969.463 439.379 969.299 416.026 972.709C393.618 975.982 373.082 986.902 372.288 986.505C370.668 985.693 377.958 971.086 379.578 970.275C381.198 969.463 409.825 966.848 433.845 954.856C457.393 943.101 475.153 924.831 473.533 921.585C471.913 918.339 447.818 922.352 424.936 930.511C403.673 938.093 385.188 953.174 383.628 951.61C380.388 948.364 389.297 926.454 393.347 921.585C397.397 916.716 471.913 900.486 475.963 874.518C475.153 865.591 455.495 871.934 436.275 881.01C417.249 888.237 401.048 902.947 400.637 901.297C399.827 898.051 402.263 871.285 404.687 869.649C407.11 868.013 429.485 864.687 447.614 854.23C470.732 843.869 491.207 828.706 483.253 823.393C468.673 813.655 411.976 848.55 411.166 846.927C410.356 845.304 413.596 829.885 417.646 826.639C421.696 823.393 491.352 792.556 477.583 782.818C463.814 773.08 423.316 807.163 420.076 808.786C416.836 810.409 420.076 790.122 420.076 790.122C453.748 772.683 480.013 736.563 474.343 731.694C468.673 726.825 432.225 759.285 427.365 760.908C424.846 761.749 436.275 737.374 437.085 720.333C437.895 703.291 428.925 685.078 427.365 686.25C424.126 688.684 420.886 694.365 419.266 697.611C417.646 700.857 411.976 670.02 406.307 675.7C400.637 681.381 411.166 727.636 411.166 727.636C411.166 727.636 414.406 764.965 411.976 764.965C409.546 764.965 386.868 702.48 380.388 713.841C373.908 725.202 382.713 762.275 408.736 788.499C408.736 788.499 408.736 803.917 404.687 803.917C400.637 803.917 363.379 745.489 358.519 760.908C353.659 776.326 369.708 804.564 400.637 825.016L394.157 849.361C379.72 817.623 343.13 791.745 341.51 797.425C339.89 803.106 356.355 847.649 390.107 868.837C390.107 868.837 386.648 897.189 384.438 896.428C382.227 895.668 377.085 869.948 364.189 855.853C351.292 841.759 330.98 835.566 330.17 837.189C329.361 838.812 324.501 855.042 339.89 881.01C355.279 906.978 374.718 912.658 378.768 915.904C382.818 919.15 372.288 949.987 369.858 946.741C367.429 943.495 350.933 912.28 345.56 900.486C340.186 888.692 309.672 864.226 307.492 868.026C305.311 871.826 304.594 896.983 317.211 919.962C331.014 945.1 360.489 964.522 361.759 966.217C364.189 969.463 357.709 984.07 352.849 983.259C347.99 982.447 344.421 962.175 324.501 942.684C304.581 923.193 287.721 914.337 286.433 916.716C285.145 919.095 286.939 943.524 301.012 961.348C317.422 982.132 344.626 1000.18 346.37 1001.92C349.609 1005.17 341.51 1034.38 337.46 1028.7C333.41 1023.02 324.501 1000.3 313.161 988.939C301.822 977.578 280.763 961.348 276.713 962.16C272.663 962.971 277.676 992.185 288.863 1005.98C300.049 1019.78 327.65 1039.97 330.98 1043.31C337.46 1049.8 326.121 1067.65 322.881 1063.6C319.641 1059.54 314.781 1041.69 299.392 1024.65C284.003 1010.04 264.355 997.389 260.514 1003.55C256.884 1009.37 273.473 1035.19 279.143 1043.31C284.813 1051.42 318.116 1078.2 318.831 1078.2Z" fill="#09402A"/>
<path d="M1465.4 1029.61C1464.04 1029.68 1466.16 1041.84 1464 1044C1461.84 1046.16 1450.5 1047.5 1446.5 1045.06C1442.5 1042.61 1445.59 1025.4 1441.29 1024.74C1436.99 1024.08 1434.4 1023.35 1434.4 1023.35C1416.51 1028.36 1395.5 1032.85 1379.16 1027.63C1354.89 1019.34 1336.3 998.789 1340.12 995.185C1343.93 991.581 1367.25 993.084 1392.27 997.895C1413.58 1001.99 1432.28 1011.45 1433.84 1011.38C1437.25 1011.22 1427.94 994.52 1426.16 992.89C1424.38 991.26 1385.82 992.939 1368.77 987.853C1338.8 978.913 1318.5 962.395 1320.57 960.115C1323.81 956.537 1349.9 961.281 1376.29 966.086C1399.46 970.305 1420.01 978.212 1421.23 978.556C1423.82 979.292 1411.6 955.018 1409.74 951.677C1407.88 948.337 1378.3 956.398 1351.7 950.954C1326.04 945.702 1309.04 932.381 1310.51 927.173C1311.97 921.965 1333.38 920.793 1358.09 923.243C1381.8 925.593 1403.91 936.091 1404.73 935.634C1406.39 934.7 1398.01 919.67 1396.27 918.894C1394.53 918.119 1364.32 916.764 1338.49 905.309C1313.17 894.079 1293.61 875.702 1295.15 872.204C1296.69 868.705 1322.21 871.753 1346.66 879.228C1369.37 886.174 1389.53 901.155 1391.1 899.431C1394.34 895.853 1383.91 873.209 1379.41 868.279C1374.92 863.348 1295.82 849.899 1290.29 822.743C1290.7 813.3 1311.67 819.018 1332.31 827.638C1352.66 834.32 1370.4 849.022 1370.76 847.265C1371.45 843.806 1367.57 815.729 1364.95 814.125C1362.32 812.52 1338.64 810.111 1319.08 799.984C1294.28 790.201 1272.02 775.231 1280.12 769.245C1294.96 758.273 1356.25 792.256 1357.02 790.507C1357.79 788.757 1353.63 772.674 1349.22 769.453C1344.8 766.232 1270.09 737.158 1284.08 726.226C1298.08 715.294 1342.3 749.215 1345.79 750.766C1349.27 752.317 1344.87 731.105 1344.87 731.105C1308.63 714.383 1279.26 677.62 1284.98 672.213C1290.7 666.807 1330.59 699.216 1335.78 700.688C1338.47 701.451 1325.26 676.334 1323.57 658.422C1321.89 640.51 1330.42 620.885 1332.12 622.043C1335.64 624.449 1339.32 630.274 1341.18 633.614C1343.05 636.954 1347.49 604.193 1353.73 609.9C1359.96 615.606 1351.17 664.847 1351.17 664.847C1351.17 664.847 1349.6 704.327 1352.15 704.208C1354.7 704.089 1375.47 637.157 1382.83 648.808C1390.2 660.458 1382.77 699.942 1356.71 728.84C1356.71 728.84 1357.47 745.082 1361.72 744.883C1365.98 744.685 1402.26 681.314 1408.12 697.317C1413.99 713.321 1398.51 743.852 1367.01 766.911L1375.02 792.238C1388.63 758.099 1425.81 729.048 1427.79 734.952C1429.77 740.857 1414.66 788.584 1380.23 812.556C1380.23 812.556 1385.25 842.252 1387.54 841.343C1389.82 840.433 1393.97 813.088 1406.83 797.61C1419.69 782.132 1440.73 774.614 1441.66 776.284C1442.59 777.954 1448.49 794.812 1433.59 822.92C1418.7 851.028 1398.55 857.963 1394.45 861.581C1390.36 865.199 1402.93 897.167 1405.33 893.628C1407.72 890.09 1423.52 856.401 1428.59 843.714C1433.66 831.027 1464.52 803.761 1467 807.657C1469.48 811.553 1471.47 838.018 1459.34 862.842C1446.07 889.998 1416.05 911.899 1414.79 913.748C1412.4 917.286 1419.93 932.356 1424.99 931.263C1430.06 930.17 1432.82 908.641 1452.79 887.134C1472.77 865.627 1490.05 855.473 1491.52 857.916C1492.99 860.359 1492.3 886.18 1478.39 905.645C1462.17 928.342 1434.47 948.681 1432.72 950.607C1429.47 954.185 1439.42 984.562 1443.39 978.38C1447.37 972.198 1455.62 947.827 1466.98 935.304C1478.34 922.781 1499.67 904.654 1503.96 905.311C1508.26 905.967 1504.43 936.986 1493.35 952.066C1482.27 967.146 1454.26 989.772 1450.92 993.45C1444.43 1000.61 1457.22 1018.86 1460.43 1014.42C1463.63 1009.99 1467.86 990.947 1483.2 972.243C1498.65 956.102 1518.68 941.815 1523.02 948.114C1527.12 954.066 1510.95 982.087 1505.39 990.912C1499.83 999.738 1466.15 1029.58 1465.4 1029.61Z" fill="#09402A"/>
<path d="M243.442 714.92C217.884 718.817 175.79 721.155 184.059 726.611C192.327 732.067 340.409 732.846 335.899 726.611C331.389 720.376 268.999 711.023 243.442 714.92Z" fill="#348E59" stroke="#338C56"/>
<path d="M160.777 641.271C153.26 642.417 140.879 643.105 143.311 644.709C145.743 646.314 189.297 646.543 187.97 644.709C186.644 642.875 168.294 640.125 160.777 641.271Z" fill="#348E59" stroke="#338C56"/>
<path d="M91.777 691.65C84.2601 694.4 71.8794 696.051 74.3113 699.902C76.7433 703.753 120.297 704.303 118.97 699.902C117.644 695.501 99.2938 688.899 91.777 691.65Z" fill="#348E59" stroke="#338C56"/>
<path d="M35.6662 650.217C31.1561 651.133 23.7276 651.684 25.1868 652.967C26.646 654.251 52.7781 654.434 51.9822 652.967C51.1863 651.5 40.1763 649.3 35.6662 650.217Z" fill="#348E59" stroke="#338C56"/>
<path d="M577.516 781.65C554.464 784.4 516.497 786.051 523.955 789.902C531.413 793.753 664.977 794.303 660.909 789.902C656.841 785.501 600.568 778.899 577.516 781.65Z" fill="#348E59" stroke="#338C56"/>
<path d="M955.516 675.65C932.464 678.4 894.497 680.051 901.955 683.902C909.413 687.753 1042.98 688.303 1038.91 683.902C1034.84 679.501 978.568 672.899 955.516 675.65Z" fill="#348E59" stroke="#338C56"/>
<path d="M549.384 667.209C532.34 675.25 503.432 685.737 510.321 687.673C517.211 689.609 620.749 658.799 616.324 655.542C611.899 652.284 566.428 659.169 549.384 667.209Z" fill="#348E59" stroke="#338C56"/>
<path d="M1735.38 596.34C1734.69 596.085 1735.03 598.182 1735.28 599.263L1722.72 600.053C1722.72 600.053 1726.4 590.071 1724.4 588.84C1722.4 587.609 1721.26 586.697 1721.26 586.697C1711.3 585.427 1699.89 583.246 1692.85 577.207C1682.51 567.971 1677.58 553.827 1680.24 552.835C1682.9 551.842 1694.19 557.499 1705.64 565.159C1715.39 571.682 1722.71 580.328 1723.5 580.621C1725.23 581.258 1724.11 570.984 1723.57 569.797C1723.02 568.611 1703.47 561.335 1696.05 555.215C1683.01 544.456 1676.38 531.96 1677.89 531.26C1680.26 530.161 1692.25 538.012 1704.37 545.958C1715.02 552.934 1723.59 561.196 1724.13 561.622C1725.26 562.534 1724.29 547.876 1724.06 545.822C1723.84 543.767 1707.41 541.556 1695.32 533.249C1683.64 525.234 1677.98 515.025 1679.81 512.739C1681.63 510.454 1692.54 514.376 1704.33 520.795C1715.64 526.954 1724.44 536.835 1724.94 536.778C1725.97 536.663 1724.96 527.417 1724.25 526.664C1723.55 525.911 1708.79 518.88 1698.34 507.741C1688.1 496.821 1682.22 483.555 1683.73 482.138C1685.23 480.72 1697.3 487.607 1707.9 496.473C1717.74 504.711 1724.63 516.414 1725.77 515.885C1728.14 514.786 1727.71 501.314 1726.51 497.914C1725.31 494.513 1688.75 471.172 1691.71 456.486C1693.91 451.872 1703.14 459.131 1711.61 467.767C1720.33 475.375 1726.08 486.43 1726.62 485.629C1727.69 484.052 1731.67 469.257 1730.7 467.905C1729.73 466.554 1718.45 460.373 1710.84 451.213C1700.55 441.123 1692.62 428.986 1697.91 427.709C1707.61 425.369 1730.97 455.187 1731.73 454.478C1732.48 453.769 1733.79 444.886 1732.27 442.353C1730.75 439.82 1699.67 409.623 1708.94 407.124C1718.2 404.624 1733.09 430.821 1734.5 432.326C1735.9 433.832 1738.18 422.344 1738.18 422.344C1723.65 406.392 1716.76 381.906 1720.75 380.418C1724.73 378.929 1737.78 403.461 1740.05 405.285C1741.23 406.231 1739.94 390.945 1742.87 381.672C1745.79 372.398 1754.17 364.421 1754.77 365.355C1756.02 367.294 1756.63 370.97 1756.85 373.025C1757.08 375.08 1766.18 359.702 1768.09 363.856C1769.99 368.009 1755.25 390.677 1755.25 390.677C1755.25 390.677 1746.16 410.005 1747.46 410.483C1748.76 410.961 1773.18 382.003 1774.4 389.354C1775.61 396.705 1763.6 414.801 1744.55 423.707C1744.55 423.707 1741.51 431.953 1743.67 432.75C1745.83 433.547 1777.23 409.627 1776.78 418.83C1776.33 428.032 1762.2 439.977 1741.67 444.831L1740.32 459.126C1754.28 444.992 1778.91 438.35 1778.65 441.707C1778.4 445.064 1760.83 465.648 1738.64 470.34C1738.64 470.34 1734.9 486.184 1736.22 486.212C1737.55 486.24 1745.37 473.495 1755.03 468.495C1764.69 463.494 1776.75 464.178 1776.86 465.205C1776.97 466.232 1776.37 475.869 1763.03 486.73C1749.7 497.591 1738.21 496.804 1735.41 497.744C1732.61 498.683 1732.14 517.247 1734.08 515.989C1736.02 514.731 1750.97 501.282 1756.17 496.031C1761.36 490.78 1782.47 483.698 1782.88 486.16C1783.29 488.621 1778.71 502.217 1767.45 512.025C1755.13 522.754 1735.57 527.342 1734.56 527.999C1732.62 529.257 1733.2 538.345 1735.95 538.867C1738.71 539.389 1744.61 529.249 1759.08 522.743C1773.55 516.238 1784.29 514.818 1784.51 516.344C1784.73 517.87 1778.95 530.582 1767.93 537.347C1755.08 545.234 1737 549.533 1735.73 550.124C1733.36 551.223 1731.92 568.441 1735.2 566.2C1738.48 563.958 1747.72 553.559 1756.01 549.713C1764.3 545.868 1778.73 541.331 1780.74 542.561C1782.74 543.792 1774.3 558.431 1765.61 563.608C1756.92 568.786 1738.21 574.158 1735.78 575.287C1731.04 577.484 1733.57 589.263 1736.1 587.731C1738.63 586.198 1744.74 577.606 1756.31 571.519C1767.4 566.734 1780.38 563.834 1781.22 567.883C1782 571.71 1768.06 582.261 1763.43 585.485C1758.81 588.71 1735.76 596.481 1735.38 596.34Z" fill="#09402A"/>
<path d="M181.254 558.951C181.182 560.312 222.051 537.902 222.984 546.143C223.411 549.918 215.57 560.837 203.947 569.708C190.201 580.2 172.221 588.506 171.482 588.467L159.201 587.817C157.836 587.744 167.897 552.783 165.312 549.916C164.092 548.563 152.404 540.575 147.216 529.846C141.409 517.835 142.286 503.004 145.928 502.475C152.823 501.475 168.117 522.762 170.774 524.268C173.431 525.773 173.22 503.92 172.215 497.041C171.211 490.162 161.235 445.95 169.639 442.299C178.042 438.648 187.374 469.175 187.374 469.175C190.837 432.925 216.543 409.288 223.294 411.01C230.044 412.733 227.263 430.414 219.984 447.694C212.003 466.638 192.732 483.699 193.332 485.872C194.481 490.028 229.82 468.691 236.498 471.775C239.986 473.386 228.847 489.363 214.517 499.28C201.407 508.352 185.137 511.437 185.068 512.738C184.924 515.46 181.403 530.291 182.695 531.724C183.988 533.158 218.178 507.664 227.586 510.893C232.436 512.557 222.966 525.727 209.914 534.53C197.652 542.801 181.9 546.741 181.831 548.06L181.254 558.951Z" fill="#06402A"/>
<path d="M787.297 516.577C815.58 468.818 869.382 362 870.448 362C870.448 362 923.217 369.462 970.656 371.594C1013.3 373.193 1045.81 372.66 1055.41 374.26C1065 375.859 1083.21 427.356 1114.04 480.864C1145.69 535.794 1180.13 590.134 1180.67 592.266C1181.2 594.398 1064.26 599.644 985.581 601.86C984.939 601.989 965.977 600.563 944.005 600.261L876.844 599.919C855.685 599.859 833.689 599.756 812.882 599.41C770.548 598.707 736.911 598.129 736.127 598.129C733.994 598.129 759.126 564.145 787.297 516.577Z" fill="#267C4B"/>
<path d="M985.581 601.86C986.934 601.59 953.047 539.925 923.217 478.732C894.275 419.36 871.514 362 870.448 362M985.581 601.86C984.939 601.989 965.977 600.563 944.005 600.261M985.581 601.86C1064.26 599.644 1181.2 594.398 1180.67 592.266C1180.13 590.134 1145.69 535.793 1114.04 480.864C1083.21 427.356 1065 375.859 1055.41 374.26C1045.81 372.66 1013.3 373.193 970.656 371.594C923.217 369.462 870.448 362 870.448 362M870.448 362C869.382 362 815.58 468.818 787.297 516.577C759.126 564.145 733.994 598.129 736.127 598.129C736.911 598.129 770.548 598.707 812.882 599.41M944.005 600.261C929.824 577.465 917.656 550.893 905.628 525.105C886.031 483.093 874.712 446.218 872.58 446.218M944.005 600.261C924.856 599.998 901.414 599.988 876.844 599.919M944.005 600.261L876.844 599.919M812.882 599.41C826.564 577.41 841.037 551.319 850.193 525.105C864.514 484.107 870.448 446.218 872.58 446.218M812.882 599.41C833.689 599.756 855.685 599.859 876.844 599.919M872.58 446.218L876.844 599.919" stroke="white" stroke-width="3"/>
<path d="M985.629 600.849C986.982 600.578 953.096 538.913 923.266 477.72C894.324 418.348 871.563 360.988 870.497 360.988M985.629 600.849C984.987 600.977 966.025 599.552 944.054 599.25M985.629 600.849C1064.31 598.633 1181.25 593.386 1180.72 591.254C1180.18 589.122 1145.74 534.782 1114.09 479.852C1083.26 426.344 1065.05 374.847 1055.46 373.248C1045.86 371.649 1013.35 372.182 970.705 370.583C923.266 368.451 870.497 360.988 870.497 360.988M870.497 360.988C869.431 360.988 815.628 467.806 787.345 515.565C759.175 563.134 734.043 597.117 736.175 597.117C736.96 597.117 770.597 597.695 812.93 598.399M944.054 599.25C929.872 576.453 917.705 549.881 905.676 524.093C886.08 482.081 874.761 445.206 872.629 445.206M944.054 599.25C924.905 598.986 901.462 598.976 876.893 598.907M944.054 599.25L876.893 598.907M812.93 598.399C826.613 576.399 841.085 550.307 850.242 524.093C864.562 483.096 870.497 445.206 872.629 445.206M812.93 598.399C833.738 598.744 855.733 598.847 876.893 598.907M872.629 445.206L876.893 598.907" stroke="white" stroke-width="3"/>
<path d="M852.907 332.206C845.445 334.92 865.167 359.923 865.167 359.923H875.294C875.294 359.923 891.818 333.272 884.888 331.14C877.959 329.008 871.03 351.928 868.898 351.395C866.766 350.862 860.369 329.493 852.907 332.206Z" fill="#267C4B" stroke="white" stroke-width="5"/>
<path d="M1038.96 343.487C1031.76 346.088 1051.19 372.181 1051.19 372.181L1057.05 372.714C1057.05 372.714 1076.49 344.509 1069.81 342.466C1063.12 340.423 1056.44 362.387 1054.38 361.876C1052.33 361.365 1046.16 340.887 1038.96 343.487Z" fill="#267C4B" stroke="white" stroke-width="4"/>
<path d="M708.991 601.384C706.326 601.918 696.731 580.597 694.599 573.667C692.467 566.738 692.467 563.007 694.599 561.941C696.731 560.875 700.995 561.408 703.127 567.804C705.26 574.2 711.656 600.851 708.991 601.384Z" fill="#267C4B" stroke="white" stroke-width="3"/>
<path d="M1058.04 619.745C1055.5 620.468 1044.56 600.594 1041.96 594.059C1039.36 587.523 1039.07 583.914 1041.05 582.717C1043.02 581.52 1047.19 581.703 1049.75 587.724C1052.31 593.744 1060.57 619.022 1058.04 619.745Z" fill="#267C4B" stroke="white" stroke-width="3"/>
<path d="M1211.14 600.332C1208.85 599.039 1215.27 577.281 1218.08 570.834C1220.9 564.387 1223.26 561.641 1225.5 562.205C1227.74 562.769 1230.54 565.858 1228.07 571.913C1225.59 577.968 1213.44 601.625 1211.14 600.332Z" fill="#267C4B" stroke="white" stroke-width="3"/>
<path d="M696.197 576.331C780.59 503.55 816.528 453.297 865.698 360.457" stroke="white" stroke-width="3"/>
<path d="M1051.19 591.787C960.675 513.689 928.564 460.61 875.826 360.988" stroke="white" stroke-width="3"/>
<path d="M1226.02 575.265C1141.31 499.771 1114.69 473.876 1054.92 372.184" stroke="white" stroke-width="3"/>
<path d="M812 598.193C825.683 576.193 840.155 550.102 849.312 523.887C863.632 482.89 869.566 445 871.699 445C873.831 445 885.149 481.875 904.746 523.887C916.775 549.675 928.942 576.247 943.124 599.044L875.963 598.701C854.803 598.641 832.807 598.538 812 598.193Z" fill="#12653A"/>
<path d="M871.699 445C869.566 445 863.632 482.89 849.312 523.887C840.155 550.102 825.683 576.193 812 598.193C832.807 598.538 854.803 598.641 875.963 598.701M871.699 445C873.831 445 885.149 481.875 904.746 523.887C916.775 549.675 928.942 576.247 943.124 599.044M871.699 445L875.963 598.701M875.963 598.701C900.532 598.77 923.975 598.78 943.124 599.044M875.963 598.701L943.124 599.044" stroke="white" stroke-width="3"/>
<path d="M1048 499.002C1042.5 490.002 1012.78 435.861 1016.28 446.361C1019.78 456.861 1036.5 486.573 1045.5 502.002C1054.5 517.431 1085.28 554.861 1081.78 549.861C1078.28 544.861 1053.5 508.002 1048 499.002Z" fill="#CEE3D3" stroke="#CEE3D3"/>
<path d="M154.5 978.5C152.5 978 147.623 969.5 146.123 967C146.123 967 161.623 948 159.623 946.5C157.623 945 146.123 926.5 146.123 926.5C146.123 926.5 135.623 905.5 142.123 903C148.623 900.5 161.123 933.5 164.123 933.5C167.123 933.5 171.123 917.5 170.623 915.5C170.123 913.5 137.123 869 144.623 863C147.961 860.33 157.671 863.375 163.623 871.5C171.046 881.632 173.623 897 175.623 897.5C177.623 898 181.382 881.777 180.623 879.5C179.864 877.223 167.675 867.992 160.623 854C153.737 840.338 152.683 824.217 157.623 821.5C167.623 816 182.623 866 184.123 866C185.623 866 189.373 851 188.123 848.5C186.873 846 176.918 835.348 172.123 821.5C167.905 809.318 170.123 796 175.623 794.5C181.123 793 190.123 832.763 193.123 832.763C196.123 832.763 197.123 817.5 196.623 813C196.123 808.5 189.173 801.977 185.123 790.5C181.44 780.065 181.361 769.667 186.123 768C196.123 764.5 198.123 796 201.123 796C204.123 796 203.123 755 212.123 755C216.689 755 220.196 770.158 217.623 784.5C215.124 798.425 207.123 810 206.123 813C205.123 816 200.623 834 202.623 834C204.623 834 214.623 809 226.123 811C232.16 812.05 229.988 824.969 220.123 835.5C211.196 845.029 198.311 851.65 197.123 854.5C194.623 860.5 193.623 866 195.123 866C196.623 866 228.623 839.5 235.123 847C241.623 854.5 193.123 879.5 190.623 883.5C188.123 887.5 183.123 901 184.123 901.5C185.123 902 221.123 868 232.123 877.5C243.123 887 180.623 921.5 177.123 927C173.623 932.5 170.623 939 173.123 940.5C175.623 942 187.142 929.736 202.123 924.5C215.018 919.993 228.885 920.687 232.123 923C239.123 928 210.123 945.5 207.623 946.5C205.123 947.5 171.123 952.5 168.123 954.5C165.123 956.5 154.5 978.5 154.5 978.5Z" fill="#06402A"/>
<path d="M157.499 1007.5C159.499 1008 159.999 1015.5 159.999 1015.5L170.999 1014.5L169.999 1009C169.999 1009 178.999 1006 181.499 1005.5C183.999 1005 203.499 1001 210.999 996C218.499 991 223.999 976 220.499 977C216.999 978 187.264 987.172 164.999 998L169.999 993C169.999 993 199.999 980.5 204.999 977L205.258 976.819C210.698 973.011 231.515 958.443 232.499 955C233.499 951.5 218.499 952 212.999 954C207.499 956 190.999 965 187.499 967.5C183.999 970 163.499 987 161.499 986.5C159.499 986 155.999 971.5 155.999 971.5C155.999 971.5 146.499 944.5 147.999 939.5C149.499 934.5 159.499 933.5 164.999 927.5C170.499 921.5 175.999 909 172.999 909C169.999 909 146.999 931 144.499 929C141.999 927 138.499 904.5 137.999 902.5C137.499 900.5 150.999 889 153.999 885.5C156.999 882 161.999 867 159.499 867C156.999 867 134.999 888 134.499 886.5C133.999 885 130.999 870.5 130.999 868.5C130.999 866.5 151.999 857.5 155.499 853C158.999 848.5 173.499 826 169.999 826.5C168.217 826.755 155.359 831.256 144.999 838.5C135.013 845.482 127.999 855 126.999 854.5C125.999 854 124.999 837.5 126.499 834C127.999 830.5 146.499 822.5 153.999 813.5C161.499 804.5 172.499 784.5 169.999 784.5C167.499 784.5 152.499 791 149.499 794C146.499 797 125.499 822.5 123.499 822C121.499 821.5 120.999 796.5 121.999 794.5C122.999 792.5 146.499 781 148.999 777.5C151.499 774 165.499 751.5 162.499 749.5C159.499 747.5 137.499 759 134.499 762.5C131.499 766 120.999 786.5 119.999 784.5C118.999 782.5 120.499 764 120.499 762.5C120.499 761 138.116 750.849 143.999 748C149.882 745.151 157.15 723.758 153.999 722.5C137.414 729.205 121.999 750.5 119.999 749.5C117.999 748.5 119.499 739.5 119.999 737.5C120.499 735.5 126.499 735 129.999 730.5C133.499 726 140.499 715.5 141.499 709C142.499 702.5 143.499 685.5 137.999 686C132.499 686.5 121.595 712.02 119.999 711.5C119.156 711.226 121.197 701.389 119.499 693.5C117.98 686.442 114.999 681 111.999 681C108.999 681 105.097 686.426 103.499 693.5C101.901 700.574 103.999 714.5 104.999 716.5C105.999 718.5 108.499 721.5 110.999 727C113.499 732.5 110.999 737.5 110.999 737.5C109.499 737.5 99.9988 722 97.4988 720C94.9988 718 80.4988 704.5 77.4988 710C74.4988 715.5 79.9988 731 87.4988 740C94.9988 749 110.999 751.5 110.999 756V770C93.4269 751.486 73.0751 750.744 61.4988 751C49.9225 751.256 47.4988 755.5 57.9988 762.5C68.4988 769.5 74.4988 770.5 89.9988 778.5C105.499 786.5 111.499 786 112.499 788C113.499 790 115.499 812.5 114.499 812C113.499 811.5 110.999 806.5 94.9988 799C78.9988 791.5 69.9988 793 69.9988 793C61.9876 796.903 61.8587 799.466 66.9988 804.5C66.9988 804.5 81.9988 816.5 93.9988 822C105.999 827.5 114.499 828.5 114.999 829C115.499 829.5 117.999 844.5 117.499 845C116.999 845.5 102.999 830.5 94.9988 827.5C86.9988 824.5 69.4988 823 69.4988 823C65.973 824.693 64.1317 825.721 65.9988 830.5C65.9988 830.5 81.9988 846.5 92.9988 852C103.999 857.5 116.999 861 119.999 862C122.999 863 125.499 883 124.499 883.5C123.499 884 120.999 880.5 117.999 878C114.999 875.5 102.499 864 95.4988 861.5C88.4988 859 65.9988 859 65.9988 859C62.0149 860.618 61.3096 861.72 66.4988 864.5C66.4988 864.5 86.9988 882.5 96.9988 887C106.999 891.5 124.999 896 126.999 898C128.999 900 137.499 932.5 135.999 932.5C134.499 932.5 117.999 918.5 106.499 914.5C94.9988 910.5 63.4988 909 63.4988 909C61.8882 909.676 60.6075 909.975 62.9988 911.5C62.9988 911.5 86.4988 931 92.9988 932.5C99.4988 934 136.999 945.5 137.999 946.5C138.999 947.5 144.499 958 143.999 958.5C143.499 959 114.999 942 106.999 940.5C98.9988 939 81.4988 942.5 81.4988 943.5C81.4988 944.5 91.4988 958.5 103.999 965.5C116.499 972.5 142.499 972 143.999 972C145.499 972 156.499 999 154.999 999C153.499 999 142.499 986 122.999 984.5C103.499 983 80.4988 989 86.9988 995.5C93.4988 1002 114.999 1003 122.999 1004C130.999 1005 155.499 1007 157.499 1007.5Z" fill="#063F2D"/>
<path d="M1692.02 39.5966C1686.66 40.8414 1707.13 57.4379 1696.89 57.438C1686.66 57.438 1655 23 1655 23V2L1695.5 18C1696.3 18.4 1749.7 21.5 1776.3 23C1776.3 23 1815.76 27.5641 1813.32 31.2983C1810.89 35.0325 1776.79 33.7878 1776.3 35.8624C1775.81 37.937 1806.02 49.1397 1803.58 51.2142C1801.15 53.2888 1790.83 52.7111 1782.63 52.459C1762.55 51.8411 1735.38 36.2773 1733.43 39.5966C1731.48 42.9159 1757.3 61.1722 1754.38 62.8319L1733.43 61.1722C1714.97 57.5012 1697.38 38.3519 1692.02 39.5966Z" fill="#064530" stroke="#064530"/>
<defs>
<linearGradient id="paint0_linear_9_37" x1="961" y1="0" x2="961" y2="611" gradientUnits="userSpaceOnUse">
<stop stop-color="#97D194"/>
<stop offset="0.399038" stop-color="#97D194"/>
<stop offset="0.778846" stop-color="#4DA665"/>
</linearGradient>
<linearGradient id="paint1_linear_9_37" x1="927.299" y1="143.179" x2="927.103" y2="389.999" gradientUnits="userSpaceOnUse">
<stop stop-color="#75BD7D"/>
<stop offset="1" stop-color="#75BD7D" stop-opacity="0"/>
</linearGradient>
<linearGradient id="paint2_linear_9_37" x1="1489.57" y1="283" x2="1489.57" y2="473.5" gradientUnits="userSpaceOnUse">
<stop stop-color="#429B59" stop-opacity="0.92"/>
<stop offset="1" stop-color="#419A5A" stop-opacity="0"/>
</linearGradient>
<linearGradient id="paint3_linear_9_37" x1="382.163" y1="176" x2="382.163" y2="502" gradientUnits="userSpaceOnUse">
<stop stop-color="#429B59"/>
<stop offset="1" stop-color="#419A5A" stop-opacity="0.09"/>
</linearGradient>
<linearGradient id="paint4_linear_9_37" x1="1316.84" y1="36" x2="1316.84" y2="649" gradientUnits="userSpaceOnUse">
<stop stop-color="#419A5A"/>
<stop offset="0.533654" stop-color="#419A5A" stop-opacity="0.545"/>
<stop offset="0.663462" stop-color="#419A5A" stop-opacity="0.09"/>
</linearGradient>
</defs>
</svg>
