<svg width="449" height="245" viewBox="0 0 449 245" fill="none" xmlns="http://www.w3.org/2000/svg">
<path d="M53.2967 157.577C81.5797 109.818 135.382 3 136.448 3C136.448 3 189.217 10.4623 236.656 12.5944C279.298 14.1935 311.813 13.6605 321.407 15.2595C331.001 16.8586 349.208 68.3558 380.04 121.864C411.69 176.794 446.134 231.134 446.667 233.266C447.2 235.398 330.26 240.644 251.581 242.86C250.939 242.989 231.977 241.563 210.005 241.261L142.844 240.919C121.685 240.859 99.6892 240.756 78.8818 240.41C36.5483 239.707 2.91125 239.129 2.12654 239.129C-0.00554729 239.129 25.1264 205.145 53.2967 157.577Z" fill="#0C0C0C"/>
<path d="M251.581 242.86C252.934 242.59 219.047 180.925 189.217 119.732C160.275 60.3599 137.514 3 136.448 3M251.581 242.86C250.939 242.989 231.977 241.563 210.005 241.261M251.581 242.86C330.26 240.644 447.2 235.398 446.667 233.266C446.134 231.134 411.69 176.793 380.04 121.864C349.208 68.3558 331.001 16.8586 321.407 15.2595C311.813 13.6605 279.298 14.1935 236.656 12.5944C189.217 10.4623 136.448 3 136.448 3M136.448 3C135.382 3 81.5797 109.818 53.2967 157.577C25.1264 205.145 -0.00554727 239.129 2.12654 239.129C2.91125 239.129 36.5483 239.707 78.8818 240.41M78.8818 240.41C92.5644 218.41 107.037 192.319 116.193 166.105C130.514 125.107 136.448 87.2176 138.58 87.2176M78.8818 240.41C99.6892 240.756 121.685 240.859 142.844 240.919M138.58 87.2176C140.712 87.2176 152.031 124.093 171.628 166.105C183.656 191.893 195.824 218.465 210.005 241.261M138.58 87.2176L142.844 240.919M210.005 241.261C190.856 240.998 167.414 240.988 142.844 240.919M210.005 241.261L142.844 240.919" stroke="white" stroke-width="3"/>
<path d="M251.629 241.85C252.982 241.579 219.096 179.914 189.266 118.721C160.324 59.3493 137.563 1.98938 136.497 1.98938M251.629 241.85C250.987 241.978 232.025 240.553 210.054 240.251M251.629 241.85C330.308 239.634 447.249 234.387 446.716 232.255C446.183 230.123 411.739 175.783 380.088 120.853C349.256 67.3452 331.05 15.848 321.455 14.2489C311.861 12.6498 279.347 13.1829 236.705 11.5838C189.266 9.4517 136.497 1.98938 136.497 1.98938M136.497 1.98938C135.431 1.98938 81.628 108.807 53.345 156.566C25.1747 204.135 0.0427926 238.118 2.17488 238.118C2.95959 238.118 36.5966 238.696 78.9301 239.4M78.9301 239.4C92.6128 217.4 107.085 191.308 116.242 165.094C130.562 124.097 136.497 86.207 138.629 86.207M78.9301 239.4C99.7376 239.745 121.733 239.848 142.893 239.908M138.629 86.207C140.761 86.207 152.08 123.082 171.676 165.094C183.705 190.882 195.872 217.454 210.054 240.251M138.629 86.207L142.893 239.908M210.054 240.251C190.905 239.987 167.462 239.977 142.893 239.908M210.054 240.251L142.893 239.908" stroke="white" stroke-width="3"/>
</svg>
